<?xml version="1.0" encoding="utf-8"?>
<!-- Generator: Adobe Illustrator 18.1.1, SVG Export Plug-In . SVG Version: 6.00 Build 0)  -->
<svg version="1.1" xmlns="http://www.w3.org/2000/svg" xmlns:xlink="http://www.w3.org/1999/xlink" x="0px" y="0px"
	 viewBox="0 0 200 199.4" enable-background="new 0 0 200 199.4" xml:space="preserve">
<g id="レイヤー_1">
	<linearGradient id="SVGID_1_" gradientUnits="userSpaceOnUse" x1="-91.8842" y1="-85.9433" x2="327.3993" y2="333.3402">
		<stop  offset="0.3481" style="stop-color:#D90D29"/>
		<stop  offset="1" style="stop-color:#A60D0D"/>
	</linearGradient>
	<path display="none" fill="url(#SVGID_1_)" d="M73.4,84.4c0,0,118.6-96.2,337.4-14.6c-8.1-45.1-26.3-86.7-52.4-122.3
		c-208.4-77.5-323,83.7-323,83.7c46-166.9,183.5-166.1,247.6-155.8c-47-31.2-103.3-49.5-164-49.5c0,0-136.9,30.4-148.3,186.3
		c0,0-33.4-100.4,19.4-156.9c-35,16.9-66.1,40.5-91.8,69.1c-3.7,14.5-3.5,36.2,13.8,62.8c0,0-26-11.5-34.5-37
		c-34.7,48.6-55.2,108-55.2,172.2c0,126.4,79.2,234.3,190.6,277C-48.7,288-2.6,160.5-2.6,160.5C11,343,120.2,396.7,181.1,412.4
		C287.6,389.7,373,309.8,403.4,206.4C372.7,167.6,257.3,42.5,73.4,84.4z"/>
	<path fill="#AE2F2F" d="M85.3,87.9c0,0,40.3-32.7,114.7-5c-2.7-15.3-9-29.5-17.8-41.6C111.3,15,72.4,69.8,72.4,69.8
		c15.6-56.7,62.4-56.5,84.2-53C140.6,6.2,121.4,0,100.8,0c0,0-46.5,10.3-50.4,63.3c0,0-11.3-34.1,6.6-53.3
		c-11.9,5.7-22.5,13.8-31.2,23.5c-1.2,4.9-1.2,12.3,4.7,21.4c0,0-8.8-3.9-11.7-12.6C7,58.8,0,79,0,100.8c0,43,26.9,79.7,64.8,94.2
		c-21-37.9-5.4-81.2-5.4-81.2c4.6,62,41.8,80.3,62.5,85.6c36.2-7.7,65.2-34.9,75.6-70C187,116.1,147.8,73.6,85.3,87.9z"/>
	<path display="none" fill="#A1A1A1" d="M392.1,397.3c0,0,8.1-6.5,22.9-1c-0.5-3.1-1.8-5.9-3.6-8.3c-14.2-5.3-22,5.7-22,5.7
		c3.1-11.3,12.5-11.3,16.8-10.6c-3.2-2.1-7-3.4-11.1-3.4c0,0-9.3,2.1-10.1,12.7c0,0-2.3-6.8,1.3-10.7c-2.4,1.1-4.5,2.8-6.2,4.7
		c-0.2,1-0.2,2.5,0.9,4.3c0,0-1.8-0.8-2.3-2.5c-2.4,3.3-3.8,7.3-3.8,11.7c0,8.6,5.4,15.9,13,18.8c-4.2-7.6-1.1-16.2-1.1-16.2
		c0.9,12.4,8.4,16.1,12.5,17.1c7.2-1.5,13-7,15.1-14C412.4,403,404.6,394.5,392.1,397.3z"/>
</g>
<g id="Layer_2">
</g>
</svg>
