<svg id="レイヤー_1" data-name="レイヤー 1" xmlns="http://www.w3.org/2000/svg" xmlns:xlink="http://www.w3.org/1999/xlink" viewBox="0 0 50 50"><defs><style>.cls-1,.cls-2,.cls-3{fill:#cc281c;}.cls-1{clip-rule:evenodd;}.cls-3{fill-rule:evenodd;}.cls-4{clip-path:url(#clip-path);}.cls-5{isolation:isolate;}.cls-6{clip-path:url(#clip-path-2);}.cls-7{clip-path:url(#clip-path-3);}</style><clipPath id="clip-path"><path class="cls-1" d="M21.32,22.06S31.4,13.94,50,20.83A24.89,24.89,0,0,0,45.55,10.5C27.84,4,18.09,17.57,18.09,17.57,22,3.46,33.69,3.53,39.14,4.4A25.22,25.22,0,0,0,25.2.22,17.05,17.05,0,0,0,12.6,16S9.76,7.48,14.25,2.7a25.39,25.39,0,0,0-7.8,5.84,6.56,6.56,0,0,0,1.17,5.31,5.91,5.91,0,0,1-2.93-3.13,25,25,0,0,0,11.51,38C11,39.27,14.86,28.49,14.86,28.49,16,43.92,25.3,48.45,30.48,49.78A25.18,25.18,0,0,0,49.37,32.37c-2.61-3.28-12.42-13.85-28-10.31"/></clipPath><clipPath id="clip-path-2"><rect class="cls-2" x="-13.57" y="-13.35" width="78.69" height="78.69"/></clipPath><clipPath id="clip-path-3"><rect class="cls-2" y="0.22" width="51.55" height="51.55"/></clipPath></defs><title>アートボード 1</title><path class="cls-3" d="M21.32,22.06S31.4,13.94,50,20.83A24.89,24.89,0,0,0,45.55,10.5C27.84,4,18.09,17.57,18.09,17.57,22,3.46,33.69,3.53,39.14,4.4A25.22,25.22,0,0,0,25.2.22,17.05,17.05,0,0,0,12.6,16S9.76,7.48,14.25,2.7a25.39,25.39,0,0,0-7.8,5.84,6.56,6.56,0,0,0,1.17,5.31,5.91,5.91,0,0,1-2.93-3.13,25,25,0,0,0,11.51,38C11,39.27,14.86,28.49,14.86,28.49,16,43.92,25.3,48.45,30.48,49.78A25.18,25.18,0,0,0,49.37,32.37c-2.61-3.28-12.42-13.85-28-10.31"/><g class="cls-4"><g class="cls-5"><rect class="cls-2" x="-13.57" y="-13.35" width="78.69" height="78.69"/><g class="cls-6"><rect class="cls-2" y="0.22" width="51.55" height="51.55"/><g class="cls-7"><rect class="cls-2" x="-13.57" y="-13.35" width="77.13" height="76.7"/></g></g></g></g></svg>