<?xml version="1.0" encoding="utf-8"?>
<!-- Generator: Adobe Illustrator 23.0.1, SVG Export Plug-In . SVG Version: 6.00 Build 0)  -->
<svg version="1.1" id="レイヤー_1" xmlns="http://www.w3.org/2000/svg" xmlns:xlink="http://www.w3.org/1999/xlink" x="0px"
	 y="0px" viewBox="0 0 50 99.4" style="enable-background:new 0 0 50 99.4;" xml:space="preserve">
<style type="text/css">
	.st0{clip-path:url(#SVGID_6_);}
	.st1{fill:#CC281C;}
	.st2{fill:#9393A2;}
	.st3{clip-path:url(#SVGID_8_);}
	.st4{clip-path:url(#SVGID_10_);}
	.st5{clip-path:url(#SVGID_12_);}
	.st6{fill:#484857;}
	.st7{clip-path:url(#SVGID_14_);}
	.st8{clip-path:url(#SVGID_16_);}
</style>
<title>アートボード 1</title>
<g>
	<g>
		<g>
			<defs>
				<path id="SVGID_4_" d="M21.3,71.7c0,0,10.1-8.1,28.7-1.2c-0.7-3.7-2.2-7.3-4.5-10.3c-17.7-6.6-27.4,7-27.4,7
					c3.9-14.1,15.6-14,21-13.2c-4.1-2.7-9-4.2-13.9-4.2c-7.2,2-12.3,8.4-12.6,15.8c0,0-2.8-8.5,1.6-13.3c-3,1.4-5.6,3.4-7.8,5.8
					c-0.4,1.9,0,3.8,1.2,5.3c-1.3-0.6-2.4-1.8-2.9-3.1c-8.1,11.2-5.5,26.8,5.7,34.9c1.8,1.3,3.7,2.3,5.8,3.1
					c-5.2-9.5-1.3-20.2-1.3-20.2c1.1,15.4,10.4,20,15.6,21.3c9-1.9,16.2-8.6,18.9-17.4C46.8,78.7,36.9,68.1,21.3,71.7"/>
			</defs>
			<clipPath id="SVGID_6_">
				<use xlink:href="#SVGID_4_"  style="overflow:visible;"/>
			</clipPath>
			<g class="st0">
				<g>
					<rect x="-13.6" y="36.2" class="st1" width="78.7" height="78.7"/>
					<g>
						<g>
							<rect id="SVGID_2_" x="-13.6" y="36.2" class="st2" width="78.7" height="78.7"/>
						</g>
						<g>
							<g>
								<defs>
									<rect id="SVGID_7_" x="-13.6" y="36.2" width="78.7" height="78.7"/>
								</defs>
								<clipPath id="SVGID_8_">
									<use xlink:href="#SVGID_7_"  style="overflow:visible;"/>
								</clipPath>
								<g class="st3">
									<rect y="49.8" class="st2" width="51.5" height="51.5"/>
									<g>
										<g>
											<rect id="SVGID_1_" y="49.8" class="st2" width="51.5" height="51.5"/>
										</g>
										<g>
											<g>
												<defs>
													<rect id="SVGID_9_" y="49.8" width="51.5" height="51.5"/>
												</defs>
												<clipPath id="SVGID_10_">
													<use xlink:href="#SVGID_9_"  style="overflow:visible;"/>
												</clipPath>
												<g class="st4">
													<rect x="-13.6" y="36.2" class="st2" width="77.1" height="76.7"/>
												</g>
											</g>
										</g>
									</g>
								</g>
							</g>
						</g>
					</g>
				</g>
			</g>
		</g>
	</g>
</g>
<g>
	<g>
		<g>
			<defs>
				<path id="SVGID_11_" d="M21.3,22.1c0,0,10.1-8.1,28.7-1.2c-0.7-3.7-2.2-7.3-4.5-10.3c-17.7-6.6-27.4,7-27.4,7
					c3.9-14.1,15.6-14,21-13.2c-4.1-2.7-9-4.2-13.9-4.2C18,2.2,12.9,8.6,12.6,16c0,0-2.8-8.5,1.6-13.3c-3,1.4-5.6,3.4-7.8,5.8
					c-0.4,1.9,0,3.8,1.2,5.3c-1.3-0.6-2.4-1.8-2.9-3.1c-8.1,11.2-5.5,26.8,5.7,34.9c1.8,1.3,3.7,2.3,5.8,3.1
					c-5.2-9.5-1.3-20.2-1.3-20.2c1.1,15.4,10.4,20,15.6,21.3c9-1.9,16.2-8.6,18.9-17.4C46.8,29.1,36.9,18.5,21.3,22.1"/>
			</defs>
			<clipPath id="SVGID_12_">
				<use xlink:href="#SVGID_11_"  style="overflow:visible;"/>
			</clipPath>
			<g class="st5">
				<g>
					<rect x="-13.6" y="-13.4" class="st1" width="78.7" height="78.7"/>
					<g>
						<g>
							<rect id="SVGID_3_" x="-13.6" y="-13.4" class="st6" width="78.7" height="78.7"/>
						</g>
						<g>
							<g>
								<defs>
									<rect id="SVGID_13_" x="-13.6" y="-13.4" width="78.7" height="78.7"/>
								</defs>
								<clipPath id="SVGID_14_">
									<use xlink:href="#SVGID_13_"  style="overflow:visible;"/>
								</clipPath>
								<g class="st7">
									<rect y="0.2" class="st6" width="51.5" height="51.5"/>
									<g>
										<g>
											<rect id="SVGID_5_" y="0.2" class="st6" width="51.5" height="51.5"/>
										</g>
										<g>
											<g>
												<defs>
													<rect id="SVGID_15_" y="0.2" width="51.5" height="51.5"/>
												</defs>
												<clipPath id="SVGID_16_">
													<use xlink:href="#SVGID_15_"  style="overflow:visible;"/>
												</clipPath>
												<g class="st8">
													<rect x="-13.6" y="-13.4" class="st6" width="77.1" height="76.7"/>
												</g>
											</g>
										</g>
									</g>
								</g>
							</g>
						</g>
					</g>
				</g>
			</g>
		</g>
	</g>
</g>
</svg>
