<svg xmlns="http://www.w3.org/2000/svg" xmlns:xlink="http://www.w3.org/1999/xlink" width="507" height="120" viewBox="0 0 507 120">
  <defs>
    <clipPath id="clip-path">
      <rect id="長方形_1096" data-name="長方形 1096" width="507" height="120" transform="translate(993 3962)" fill="#fff" stroke="#707070" stroke-width="1"/>
    </clipPath>
  </defs>
  <g id="マスクグループ_46" data-name="マスクグループ 46" transform="translate(-993 -3962)" clip-path="url(#clip-path)">
    <g id="グループ_40" data-name="グループ 40" transform="translate(993 3962)">
      <path id="多角形_13" data-name="多角形 13" d="M26.67,0,53.34,40H0Z" transform="translate(506.727 40.005)" fill="#f5f5f5"/>
      <path id="多角形_14" data-name="多角形 14" d="M26.67,0,53.34,40H0Z" transform="translate(480.057 80.01)" fill="#f5f5f5"/>
      <path id="多角形_15" data-name="多角形 15" d="M26.67,0,53.34,40H0Z" transform="translate(426.717 80.01)" fill="#f5f5f5"/>
      <path id="多角形_16" data-name="多角形 16" d="M26.67,0,53.34,40H0Z" transform="translate(400.047 40.005)" fill="#f5f5f5"/>
      <path id="多角形_17" data-name="多角形 17" d="M26.67,0,53.34,40H0Z" transform="translate(373.378 80.01)" fill="#f5f5f5"/>
      <path id="多角形_18" data-name="多角形 18" d="M26.67,0,53.34,40H0Z" transform="translate(453.387 40.005)" fill="#f5f5f5"/>
      <path id="多角形_20" data-name="多角形 20" d="M26.67,0,53.34,40H0Z" transform="translate(480.057 0)" fill="#f5f5f5"/>
      <path id="多角形_21" data-name="多角形 21" d="M26.67,0,53.34,40H0Z" transform="translate(426.717 0)" fill="#f5f5f5"/>
      <path id="多角形_22" data-name="多角形 22" d="M26.67,0,53.34,40H0Z" transform="translate(373.378 0)" fill="#f5f5f5"/>
      <path id="多角形_24" data-name="多角形 24" d="M26.67,0,53.34,40H0Z" transform="translate(320.038 80.01)" fill="#f5f5f5"/>
      <path id="多角形_25" data-name="多角形 25" d="M26.67,0,53.34,40H0Z" transform="translate(293.368 40.005)" fill="#f5f5f5"/>
      <path id="多角形_26" data-name="多角形 26" d="M26.67,0,53.34,40H0Z" transform="translate(266.698 80.01)" fill="#f5f5f5"/>
      <path id="多角形_27" data-name="多角形 27" d="M26.67,0,53.34,40H0Z" transform="translate(346.708 40.005)" fill="#f5f5f5"/>
      <path id="多角形_28" data-name="多角形 28" d="M26.67,0,53.34,40H0Z" transform="translate(320.038 0)" fill="#f5f5f5"/>
      <path id="多角形_29" data-name="多角形 29" d="M26.67,0,53.34,40H0Z" transform="translate(266.698 0)" fill="#f5f5f5"/>
      <path id="多角形_30" data-name="多角形 30" d="M26.67,0,53.34,40H0Z" transform="translate(213.359 80.01)" fill="#f5f5f5"/>
      <path id="多角形_31" data-name="多角形 31" d="M26.67,0,53.34,40H0Z" transform="translate(186.689 40.005)" fill="#f5f5f5"/>
      <path id="多角形_32" data-name="多角形 32" d="M26.67,0,53.34,40H0Z" transform="translate(160.019 80.01)" fill="#f5f5f5"/>
      <path id="多角形_33" data-name="多角形 33" d="M26.67,0,53.34,40H0Z" transform="translate(106.679 80.01)" fill="#f5f5f5"/>
      <path id="多角形_37" data-name="多角形 37" d="M26.67,0,53.34,40H0Z" transform="translate(213.359 0)" fill="#f5f5f5"/>
      <path id="多角形_38" data-name="多角形 38" d="M26.67,0,53.34,40H0Z" transform="translate(160.019 0)" fill="#f5f5f5"/>
      <path id="多角形_41" data-name="多角形 41" d="M26.67,0,53.34,40H0Z" transform="translate(240.028 40.005)" fill="#f5f5f5"/>
      <path id="多角形_42" data-name="多角形 42" d="M26.67,0,53.34,40H0Z" transform="translate(133.349 40.005)" fill="#f5f5f5"/>
      <path id="多角形_43" data-name="多角形 43" d="M26.67,0,53.34,40H0Z" transform="translate(53.34 80.01)" fill="#f5f5f5"/>
      <path id="多角形_44" data-name="多角形 44" d="M26.67,0,53.34,40H0Z" transform="translate(80.009 40.005)" fill="#f5f5f5"/>
      <path id="多角形_45" data-name="多角形 45" d="M26.67,0,53.34,40H0Z" transform="translate(0 80.01)" fill="#f5f5f5"/>
    </g>
  </g>
</svg>
