<svg xmlns="http://www.w3.org/2000/svg" xmlns:xlink="http://www.w3.org/1999/xlink" width="721" height="200" viewBox="0 0 721 200">
  <defs>
    <clipPath id="clip-path">
      <rect id="長方形_1093" data-name="長方形 1093" width="721" height="200" transform="translate(0 100)"/>
    </clipPath>
  </defs>
  <g id="マスクグループ_43" data-name="マスクグループ 43" transform="translate(0 -100)" clip-path="url(#clip-path)">
    <g id="グループ_4720" data-name="グループ 4720" transform="translate(-79.519 100.08)">
      <path id="多角形_3" data-name="多角形 3" d="M26.67,0,53.34,40H0Z" transform="translate(106.679 40.005) rotate(180)" fill="#f5f5f5"/>
      <path id="多角形_4" data-name="多角形 4" d="M26.67,0,53.34,40H0Z" transform="translate(160.019 40.005) rotate(180)" fill="#f5f5f5"/>
      <path id="多角形_5" data-name="多角形 5" d="M26.67,0,53.34,40H0Z" transform="translate(186.689 80.009) rotate(180)" fill="#f5f5f5"/>
      <path id="多角形_6" data-name="多角形 6" d="M26.67,0,53.34,40H0Z" transform="translate(213.359 40.005) rotate(180)" fill="#f5f5f5"/>
      <path id="多角形_7" data-name="多角形 7" d="M26.67,0,53.34,40H0Z" transform="translate(133.349 80.009) rotate(180)" fill="#f5f5f5"/>
      <path id="多角形_9" data-name="多角形 9" d="M26.67,0,53.34,40H0Z" transform="translate(106.679 120.014) rotate(180)" fill="#f5f5f5"/>
      <path id="多角形_10" data-name="多角形 10" d="M26.67,0,53.34,40H0Z" transform="translate(160.019 120.014) rotate(180)" fill="#f5f5f5"/>
      <path id="多角形_11" data-name="多角形 11" d="M26.67,0,53.34,40H0Z" transform="translate(213.359 120.014) rotate(180)" fill="#f5f5f5"/>
      <path id="多角形_12" data-name="多角形 12" d="M26.67,0,53.34,40H0Z" transform="translate(266.698 40.005) rotate(180)" fill="#f5f5f5"/>
      <path id="多角形_13" data-name="多角形 13" d="M26.67,0,53.34,40H0Z" transform="translate(293.368 80.009) rotate(180)" fill="#f5f5f5"/>
      <path id="多角形_14" data-name="多角形 14" d="M26.67,0,53.34,40H0Z" transform="translate(320.038 40.005) rotate(180)" fill="#f5f5f5"/>
      <path id="多角形_15" data-name="多角形 15" d="M26.67,0,53.34,40H0Z" transform="translate(373.378 40.005) rotate(180)" fill="#f5f5f5"/>
      <path id="多角形_16" data-name="多角形 16" d="M26.67,0,53.34,40H0Z" transform="translate(400.047 80.009) rotate(180)" fill="#f5f5f5"/>
      <path id="多角形_17" data-name="多角形 17" d="M26.67,0,53.34,40H0Z" transform="translate(426.717 40.005) rotate(180)" fill="#f5f5f5"/>
      <path id="多角形_18" data-name="多角形 18" d="M26.67,0,53.34,40H0Z" transform="translate(346.708 80.009) rotate(180)" fill="#f5f5f5"/>
      <path id="多角形_19" data-name="多角形 19" d="M26.67,0,53.34,40H0Z" transform="translate(266.698 120.014) rotate(180)" fill="#f5f5f5"/>
      <path id="多角形_20" data-name="多角形 20" d="M26.67,0,53.34,40H0Z" transform="translate(320.038 120.014) rotate(180)" fill="#f5f5f5"/>
      <path id="多角形_21" data-name="多角形 21" d="M26.67,0,53.34,40H0Z" transform="translate(373.378 120.014) rotate(180)" fill="#f5f5f5"/>
      <path id="多角形_22" data-name="多角形 22" d="M26.67,0,53.34,40H0Z" transform="translate(426.717 120.014) rotate(180)" fill="#f5f5f5"/>
      <path id="多角形_23" data-name="多角形 23" d="M26.67,0,53.34,40H0Z" transform="translate(240.028 80.009) rotate(180)" fill="#f5f5f5"/>
      <path id="多角形_24" data-name="多角形 24" d="M26.67,0,53.34,40H0Z" transform="translate(480.057 40.005) rotate(180)" fill="#f5f5f5"/>
      <path id="多角形_25" data-name="多角形 25" d="M26.67,0,53.34,40H0Z" transform="translate(506.727 80.009) rotate(180)" fill="#f5f5f5"/>
      <path id="多角形_26" data-name="多角形 26" d="M26.67,0,53.34,40H0Z" transform="translate(533.396 40.005) rotate(180)" fill="#f5f5f5"/>
      <path id="多角形_27" data-name="多角形 27" d="M26.67,0,53.34,40H0Z" transform="translate(453.387 80.009) rotate(180)" fill="#f5f5f5"/>
      <path id="多角形_28" data-name="多角形 28" d="M26.67,0,53.34,40H0Z" transform="translate(480.057 120.014) rotate(180)" fill="#f5f5f5"/>
      <path id="多角形_29" data-name="多角形 29" d="M26.67,0,53.34,40H0Z" transform="translate(533.396 120.014) rotate(180)" fill="#f5f5f5"/>
      <path id="多角形_30" data-name="多角形 30" d="M26.67,0,53.34,40H0Z" transform="translate(586.736 40.005) rotate(180)" fill="#f5f5f5"/>
      <path id="多角形_31" data-name="多角形 31" d="M26.67,0,53.34,40H0Z" transform="translate(613.406 80.009) rotate(180)" fill="#f5f5f5"/>
      <path id="多角形_32" data-name="多角形 32" d="M26.67,0,53.34,40H0Z" transform="translate(640.076 40.005) rotate(180)" fill="#f5f5f5"/>
      <path id="多角形_33" data-name="多角形 33" d="M26.67,0,53.34,40H0Z" transform="translate(693.415 40.005) rotate(180)" fill="#f5f5f5"/>
      <path id="多角形_37" data-name="多角形 37" d="M26.67,0,53.34,40H0Z" transform="translate(586.736 120.014) rotate(180)" fill="#f5f5f5"/>
      <path id="多角形_38" data-name="多角形 38" d="M26.67,0,53.34,40H0Z" transform="translate(640.076 120.014) rotate(180)" fill="#f5f5f5"/>
      <path id="多角形_41" data-name="多角形 41" d="M26.67,0,53.34,40H0Z" transform="translate(560.066 80.009) rotate(180)" fill="#f5f5f5"/>
      <path id="多角形_42" data-name="多角形 42" d="M26.67,0,53.34,40H0Z" transform="translate(666.746 80.009) rotate(180)" fill="#f5f5f5"/>
      <path id="多角形_43" data-name="多角形 43" d="M26.67,0,53.34,40H0Z" transform="translate(746.755 40.005) rotate(180)" fill="#f5f5f5"/>
      <path id="多角形_44" data-name="多角形 44" d="M26.67,0,53.34,40H0Z" transform="translate(720.085 80.009) rotate(180)" fill="#f5f5f5"/>
      <path id="多角形_45" data-name="多角形 45" d="M26.67,0,53.34,40H0Z" transform="translate(800.095 40.005) rotate(180)" fill="#f5f5f5"/>
      <g id="グループ_4722" data-name="グループ 4722" transform="translate(-187 40)">
        <path id="多角形_51" data-name="多角形 51" d="M26.67,0,53.34,40H0Z" transform="translate(320.038 120.014) rotate(180)" fill="#f5f5f5"/>
        <path id="多角形_52" data-name="多角形 52" d="M26.67,0,53.34,40H0Z" transform="translate(373.377 120.014) rotate(180)" fill="#f5f5f5"/>
        <path id="多角形_53" data-name="多角形 53" d="M26.67,0,53.34,40H0Z" transform="translate(426.717 120.014) rotate(180)" fill="#f5f5f5"/>
        <path id="多角形_54" data-name="多角形 54" d="M26.67,0,53.34,40H0Z" transform="translate(480.057 120.014) rotate(180)" fill="#f5f5f5"/>
        <path id="多角形_55" data-name="多角形 55" d="M26.67,0,53.34,40H0Z" transform="translate(533.396 120.014) rotate(180)" fill="#f5f5f5"/>
        <path id="多角形_56" data-name="多角形 56" d="M26.67,0,53.34,40H0Z" transform="translate(586.736 120.014) rotate(180)" fill="#f5f5f5"/>
        <path id="多角形_57" data-name="多角形 57" d="M26.67,0,53.34,40H0Z" transform="translate(640.076 120.014) rotate(180)" fill="#f5f5f5"/>
        <path id="多角形_59" data-name="多角形 59" d="M26.67,0,53.34,40H0Z" transform="translate(293.377 160.014) rotate(180)" fill="#f5f5f5"/>
        <path id="多角形_60" data-name="多角形 60" d="M26.67,0,53.34,40H0Z" transform="translate(346.717 160.014) rotate(180)" fill="#f5f5f5"/>
      </g>
    </g>
  </g>
</svg>
