<svg xmlns="http://www.w3.org/2000/svg" xmlns:xlink="http://www.w3.org/1999/xlink" width="400" height="120" viewBox="0 0 400 120">
  <defs>
    <clipPath id="clip-path">
      <rect id="長方形_1097" data-name="長方形 1097" width="400" height="120" transform="translate(0 4722)" fill="#fff" stroke="#707070" stroke-width="1"/>
    </clipPath>
  </defs>
  <g id="マスクグループ_47" data-name="マスクグループ 47" transform="translate(0 -4722)" clip-path="url(#clip-path)">
    <g id="グループ_42" data-name="グループ 42" transform="translate(-400 4722)">
      <path id="多角形_16" data-name="多角形 16" d="M26.67,0,53.34,40H0Z" transform="translate(400.047 80.009) rotate(180)" fill="#f5f5f5"/>
      <path id="多角形_17" data-name="多角形 17" d="M26.67,0,53.34,40H0Z" transform="translate(426.717 40.005) rotate(180)" fill="#f5f5f5"/>
      <path id="多角形_22" data-name="多角形 22" d="M26.67,0,53.34,40H0Z" transform="translate(426.717 120.014) rotate(180)" fill="#f5f5f5"/>
      <path id="多角形_24" data-name="多角形 24" d="M26.67,0,53.34,40H0Z" transform="translate(480.057 40.005) rotate(180)" fill="#f5f5f5"/>
      <path id="多角形_25" data-name="多角形 25" d="M26.67,0,53.34,40H0Z" transform="translate(506.727 80.009) rotate(180)" fill="#f5f5f5"/>
      <path id="多角形_26" data-name="多角形 26" d="M26.67,0,53.34,40H0Z" transform="translate(533.396 40.005) rotate(180)" fill="#f5f5f5"/>
      <path id="多角形_27" data-name="多角形 27" d="M26.67,0,53.34,40H0Z" transform="translate(453.387 80.009) rotate(180)" fill="#f5f5f5"/>
      <path id="多角形_28" data-name="多角形 28" d="M26.67,0,53.34,40H0Z" transform="translate(480.057 120.014) rotate(180)" fill="#f5f5f5"/>
      <path id="多角形_29" data-name="多角形 29" d="M26.67,0,53.34,40H0Z" transform="translate(533.396 120.014) rotate(180)" fill="#f5f5f5"/>
      <path id="多角形_30" data-name="多角形 30" d="M26.67,0,53.34,40H0Z" transform="translate(586.736 40.005) rotate(180)" fill="#f5f5f5"/>
      <path id="多角形_31" data-name="多角形 31" d="M26.67,0,53.34,40H0Z" transform="translate(613.406 80.009) rotate(180)" fill="#f5f5f5"/>
      <path id="多角形_32" data-name="多角形 32" d="M26.67,0,53.34,40H0Z" transform="translate(640.076 40.005) rotate(180)" fill="#f5f5f5"/>
      <path id="多角形_33" data-name="多角形 33" d="M26.67,0,53.34,40H0Z" transform="translate(693.415 40.005) rotate(180)" fill="#f5f5f5"/>
      <path id="多角形_37" data-name="多角形 37" d="M26.67,0,53.34,40H0Z" transform="translate(586.736 120.014) rotate(180)" fill="#f5f5f5"/>
      <path id="多角形_38" data-name="多角形 38" d="M26.67,0,53.34,40H0Z" transform="translate(640.076 120.014) rotate(180)" fill="#f5f5f5"/>
      <path id="多角形_41" data-name="多角形 41" d="M26.67,0,53.34,40H0Z" transform="translate(560.066 80.009) rotate(180)" fill="#f5f5f5"/>
      <path id="多角形_42" data-name="多角形 42" d="M26.67,0,53.34,40H0Z" transform="translate(666.745 80.009) rotate(180)" fill="#f5f5f5"/>
      <path id="多角形_43" data-name="多角形 43" d="M26.67,0,53.34,40H0Z" transform="translate(746.755 40.005) rotate(180)" fill="#f5f5f5"/>
      <path id="多角形_44" data-name="多角形 44" d="M26.67,0,53.34,40H0Z" transform="translate(720.085 80.009) rotate(180)" fill="#f5f5f5"/>
      <path id="多角形_45" data-name="多角形 45" d="M26.67,0,53.34,40H0Z" transform="translate(800.095 40.005) rotate(180)" fill="#f5f5f5"/>
    </g>
  </g>
</svg>
