<svg xmlns="http://www.w3.org/2000/svg" xmlns:xlink="http://www.w3.org/1999/xlink" width="91" height="91" viewBox="0 0 91 91">
  <defs>
    <clipPath id="clip-easier_input_icon">
      <rect width="91" height="91"/>
    </clipPath>
  </defs>
  <g id="easier_input_icon" clip-path="url(#clip-easier_input_icon)">
    <path id="パス_7220" data-name="パス 7220" d="M0,45.5A45.5,45.5,0,1,0,71.179,7.934L73.867.74l-9.386,3.4A45.521,45.521,0,0,0,0,45.5Z" transform="translate(91 91) rotate(180)" fill="#ffd800"/>
    <path id="パス_7221" data-name="パス 7221" d="M-25.494-7.826c-.546.084-1.064.154-1.652.21-.616.056-1.232.1-1.848.1a12.79,12.79,0,0,0,.434,1.442.307.307,0,0,0,.448.182,4.114,4.114,0,0,1,.77-.224c.378-.07.826-.154,1.372-.238A29.521,29.521,0,0,1-28.532-.868a.261.261,0,0,0-.056.154.288.288,0,0,0,.112.21,6.366,6.366,0,0,0,.966.616.23.23,0,0,0,.364-.126,38.664,38.664,0,0,0,2.814-6.58,9.274,9.274,0,0,1,1.176-.1c.616,0,.8.308.8,1.3A10.786,10.786,0,0,1-22.9-1.918c-.224.574-.434.742-.9.742a4.2,4.2,0,0,1-1.54-.308,4,4,0,0,1,.266,1.3.363.363,0,0,0,.252.392,4.571,4.571,0,0,0,1.386.154,2,2,0,0,0,1.89-1.316,12.022,12.022,0,0,0,.756-4.494c0-1.694-.714-2.59-2.03-2.59a10.557,10.557,0,0,0-1.092.056c.182-.588.322-1.106.5-1.68a1.771,1.771,0,0,1,.28-.532.292.292,0,0,0,.1-.21.3.3,0,0,0-.224-.28,10.247,10.247,0,0,0-1.68-.462,9.529,9.529,0,0,1-.14,1.554C-25.172-9.114-25.27-8.624-25.494-7.826Zm4.984-.112a9.477,9.477,0,0,1,2.3,3.626c.042.168.182.182.322.112a5.713,5.713,0,0,0,1.05-.7.2.2,0,0,0,.056-.28,9.369,9.369,0,0,0-2.324-3.4c-.1-.1-.168-.126-.266-.07A11.872,11.872,0,0,0-20.51-7.938Zm8.386,3.192c.77-1.26,1.526-2.73,2.422-4.452a3.649,3.649,0,0,1,.434-.6.437.437,0,0,0,.154-.28.365.365,0,0,0-.2-.294,8.111,8.111,0,0,0-1.568-.784,8.4,8.4,0,0,1-.7,2.044c-.77,1.75-2.058,4.424-4.1,8.428a.417.417,0,0,0-.07.2.244.244,0,0,0,.126.182,4.524,4.524,0,0,0,1.078.6c.182.056.252.028.336-.168a16.263,16.263,0,0,1,1.638-3.108,2.445,2.445,0,0,1,1.764-1.19c.49,0,.8.406.924,1.806C-9.7-.392-9.1.35-7.686.35A3.5,3.5,0,0,0-5.11-.826a7.572,7.572,0,0,0,1.2-1.736A.5.5,0,0,0-3.85-2.8.384.384,0,0,0-4-3.094a3.4,3.4,0,0,1-.812-1.162A6.93,6.93,0,0,1-6.23-1.974,1.789,1.789,0,0,1-7.546-1.3c-.532,0-.7-.462-.812-1.484C-8.512-4.13-8.89-5.432-10.4-5.432a2.778,2.778,0,0,0-1.708.714Zm15.4-4c.1-.35.2-.826.336-1.33a2.665,2.665,0,0,1,.294-.56.336.336,0,0,0,.07-.224.233.233,0,0,0-.154-.224,8.159,8.159,0,0,0-1.764-.392,9.633,9.633,0,0,1-.084,1.288c-.1.574-.21,1.19-.35,1.75A18.92,18.92,0,0,1-.644-8.3,6.461,6.461,0,0,1-1.68-8.344c.07.5.14.98.2,1.274.028.182.084.224.294.224.658,0,1.638-.07,2.45-.154A52.552,52.552,0,0,1-1.162-.364a.226.226,0,0,0,.112.28C-.756.084-.07.378.07.434S.308.49.378.294c.9-2.324,1.61-4.466,2.562-7.574a22.357,22.357,0,0,0,2.436-.532c.182-.042.224-.084.21-.266-.014-.294-.056-.7-.1-1.008-.014-.112-.07-.182-.224-.14C4.578-9.03,3.822-8.848,3.276-8.75Zm.252,6.426a2.731,2.731,0,0,0,.63,1.918C4.788.252,5.74.5,7.574.5A16.636,16.636,0,0,0,9.478.35C9.7.336,9.716.294,9.7.126A8.752,8.752,0,0,0,9.59-1.092c-.014-.112-.056-.14-.168-.126a20.93,20.93,0,0,1-2.352.2c-1.344,0-2.03-.294-2.142-1.316-.014-.14-.07-.2-.21-.2A7.13,7.13,0,0,0,3.528-2.324ZM4.62-4.97a15.493,15.493,0,0,1,2.814-.322,9.362,9.362,0,0,1,1.736.168c.2.042.266-.014.266-.252A9.88,9.88,0,0,0,9.422-6.5c0-.168-.042-.182-.238-.21a10.2,10.2,0,0,0-1.638-.14,14.621,14.621,0,0,0-2.73.322c-.21.042-.252.084-.252.28C4.564-5.964,4.592-5.46,4.62-4.97Zm11.256.224c.77-1.26,1.526-2.73,2.422-4.452a3.649,3.649,0,0,1,.434-.6.437.437,0,0,0,.154-.28.365.365,0,0,0-.2-.294,8.111,8.111,0,0,0-1.568-.784,8.4,8.4,0,0,1-.7,2.044c-.77,1.75-2.058,4.424-4.1,8.428a.417.417,0,0,0-.07.2.244.244,0,0,0,.126.182,4.524,4.524,0,0,0,1.078.6c.182.056.252.028.336-.168a16.263,16.263,0,0,1,1.638-3.108,2.445,2.445,0,0,1,1.764-1.19c.49,0,.8.406.924,1.806C18.3-.392,18.9.35,20.314.35A3.5,3.5,0,0,0,22.89-.826a7.572,7.572,0,0,0,1.2-1.736A.5.5,0,0,0,24.15-2.8.384.384,0,0,0,24-3.094a3.4,3.4,0,0,1-.812-1.162A6.93,6.93,0,0,1,21.77-1.974a1.789,1.789,0,0,1-1.316.672c-.532,0-.7-.462-.812-1.484C19.488-4.13,19.11-5.432,17.6-5.432a2.778,2.778,0,0,0-1.708.714Zm12.866-6.09H26.558l.336,7.826h1.414ZM28.6-1.862H26.614V.028H28.6ZM-26.985,7.276h-1.428a7.891,7.891,0,0,1-2.492,1.26l.28,1.47a7.851,7.851,0,0,0,1.974-.952V16.67h-2.1v1.358h5.768V16.67h-2Zm10.85-.336c-.154.07-.182.084-.126.238a14.745,14.745,0,0,0,3.01,4.438c-.14.014-.6.028-1.82.028h-3.766c-1.078,0-1.568-.014-1.764-.028a12.634,12.634,0,0,0,2.562-3.71,1.122,1.122,0,0,1,.322-.448.288.288,0,0,0,.112-.21c0-.1-.042-.168-.2-.238a9.823,9.823,0,0,0-1.456-.49,3.959,3.959,0,0,1-.28.9,10.931,10.931,0,0,1-4.046,4.62,3.139,3.139,0,0,1,.784.854c.14.21.2.308.294.308.07,0,.154-.07.308-.182a15.256,15.256,0,0,0,1.358-1.162v1.022c0,.14.014.154.154.154.084,0,.532-.028,1.848-.028h.168c-.266,2.464-1.5,3.948-4.046,4.872a2.645,2.645,0,0,1,.714.84c.14.238.182.336.294.336a.92.92,0,0,0,.336-.112A6.771,6.771,0,0,0-17.115,13h2.492a23.107,23.107,0,0,1-.266,3.472c-.112.644-.35.868-.938.868a10.433,10.433,0,0,1-1.6-.126,2.878,2.878,0,0,1,.434,1.12c.1.462.084.462.518.49.336.028.6.028.952.028a1.813,1.813,0,0,0,2.086-1.722,27.945,27.945,0,0,0,.35-3.92c.014-.49.014-.98.042-1.386a11.583,11.583,0,0,0,1.33,1.134c.14.112.224.182.294.182s.14-.1.266-.308a4.793,4.793,0,0,1,.812-1.05,11.21,11.21,0,0,1-4.536-5.166c-.056-.14-.084-.154-.266-.07Zm14,2.688a5.065,5.065,0,0,0-2.688,4.438c0,2.912,2.7,4.326,5.166,4.326.168,0,.224-.084.266-.294a4.98,4.98,0,0,0,.154-1.2c0-.154-.084-.21-.308-.21-2.436-.154-3.724-1.134-3.724-2.94,0-1.68,1.19-3.318,3.57-4.13a6.247,6.247,0,0,1,1.708-.308c.182,0,.266-.042.266-.21a8,8,0,0,0-.154-1.232c-.014-.1-.084-.182-.294-.154-3.612.476-6.692.938-8.414,1.19a19.313,19.313,0,0,1-2.226.238A9.756,9.756,0,0,0-8.3,10.65a.327.327,0,0,0,.266.21.817.817,0,0,0,.308-.112c.21-.07.35-.1.882-.224,1.5-.308,3-.6,4.7-.924Zm2.03,2a6.947,6.947,0,0,1,1.414,1.624.146.146,0,0,0,.238.042l.588-.434a.141.141,0,0,0,.042-.224,6.443,6.443,0,0,0-1.33-1.5c-.084-.07-.14-.084-.21-.028Zm1.288-.924a6.623,6.623,0,0,1,1.4,1.61.144.144,0,0,0,.238.042l.56-.434a.162.162,0,0,0,.042-.252,5.847,5.847,0,0,0-1.33-1.442c-.084-.07-.126-.084-.21-.028Zm7.308,3.15a3.83,3.83,0,0,1-.8,2.45,5.272,5.272,0,0,1-3.024,1.47,3.494,3.494,0,0,1,.686.938c.126.252.182.336.308.336a1.074,1.074,0,0,0,.322-.084A5.554,5.554,0,0,0,9.079,16.95a5.382,5.382,0,0,0,.9-3.094h1.61V17.1a1.849,1.849,0,0,0,.336,1.358c.28.28.8.406,2.254.406s2.044-.14,2.52-.56a2.358,2.358,0,0,0,.588-1.764c.014-.364.014-.364-.35-.434a3.4,3.4,0,0,1-.966-.406c-.028.966-.1,1.344-.336,1.554a1.975,1.975,0,0,1-1.176.21c-.77,0-1.162-.042-1.288-.168-.1-.126-.112-.28-.112-.63V13.856h2c1.274,0,1.722.028,1.806.028.14,0,.154-.014.154-.168V12.694c0-.14-.014-.154-.154-.154-.084,0-.532.028-1.806.028H7.007c-1.288,0-1.722-.028-1.806-.028-.154,0-.168.014-.168.154v1.022c0,.154.014.168.168.168.084,0,.518-.028,1.806-.028Zm3.15-6.118V7.6a2.865,2.865,0,0,1,.056-.84.715.715,0,0,0,.084-.28c0-.056-.084-.112-.21-.126-.476-.042-.98-.07-1.5-.084a5.705,5.705,0,0,1,.1,1.33v.14H7.2c-1.3,0-1.778-.028-1.862-.028-.14,0-.154.014-.154.154,0,.084.028.336.028.868v.5c0,1.288-.028,1.5-.028,1.582,0,.154.014.168.154.168H6.5c.14,0,.154-.014.154-.168V9.04h8.708v1.778c0,.14.014.154.154.154h1.162c.14,0,.154-.014.154-.154,0-.084-.028-.308-.028-1.582V8.62c0-.42.028-.672.028-.756,0-.14-.014-.154-.154-.154-.084,0-.56.028-1.862.028Zm.91,3.724c1.246,0,1.68.028,1.764.028.14,0,.14-.014.14-.154v-1.05c0-.154,0-.168-.14-.168-.084,0-.518.028-1.764.028H9.485c-1.26,0-1.68-.028-1.764-.028-.14,0-.154.014-.154.168v1.05c0,.14.014.154.154.154.084,0,.5-.028,1.764-.028Zm13.468.322A30.187,30.187,0,0,0,30.065,8.8a2.53,2.53,0,0,1,.644-.462.316.316,0,0,0,.2-.322c0-.14-.084-.252-.49-.658s-.574-.5-.658-.5a.456.456,0,0,0-.2.056,1.483,1.483,0,0,1-.546.07H21.553c-1.3,0-1.75-.028-1.834-.028-.14,0-.154.014-.154.154V8.27c0,.154.014.168.154.168.084,0,.532-.028,1.834-.028h6.678a20.388,20.388,0,0,1-2.842,2.058l-1.05-.07a11.407,11.407,0,0,1,.112,1.918V16.6c0,.532-.21.714-.658.714a19.865,19.865,0,0,1-1.988-.1,3.622,3.622,0,0,1,.462,1.176c.1.448.112.448.546.434,1.428-.014,2.268-.07,2.716-.42a1.425,1.425,0,0,0,.518-1.316c0-.336-.028-.8-.028-1.666Z" transform="translate(46 42)"/>
  </g>
</svg>
