<svg xmlns="http://www.w3.org/2000/svg" xmlns:xlink="http://www.w3.org/1999/xlink" width="91" height="91" viewBox="0 0 91 91">
  <defs>
    <clipPath id="clip-easier_input_icon_en">
      <rect width="91" height="91"/>
    </clipPath>
  </defs>
  <g id="easier_input_icon_en" clip-path="url(#clip-easier_input_icon_en)">
    <path id="パス_7219" data-name="パス 7219" d="M0,45.5A45.5,45.5,0,1,0,71.179,7.934L73.867.74l-9.386,3.4A45.521,45.521,0,0,0,0,45.5Z" transform="translate(91 91) rotate(180)" fill="#ffd800"/>
    <path id="パス_7222" data-name="パス 7222" d="M-5691.064-4167.385a3.639,3.639,0,0,1-1.513-1.379,3.806,3.806,0,0,1-.531-2,3.853,3.853,0,0,1,.524-2,3.689,3.689,0,0,1,1.443-1.386,4.238,4.238,0,0,1,2.05-.5,4.2,4.2,0,0,1,2,.476,3.49,3.49,0,0,1,1.407,1.365,4.072,4.072,0,0,1,.51,2.065c0,.028-.014.224-.042.589h-5.7a1.77,1.77,0,0,0,.728,1.1,2.406,2.406,0,0,0,1.428.406,2.881,2.881,0,0,0,1.043-.175,2.506,2.506,0,0,0,.847-.553l1.162,1.26a3.9,3.9,0,0,1-3.107,1.218A4.908,4.908,0,0,1-5691.064-4167.385Zm.743-5.186a1.781,1.781,0,0,0-.616,1.147h3.709a1.806,1.806,0,0,0-.616-1.141,1.844,1.844,0,0,0-1.231-.426A1.872,1.872,0,0,0-5690.321-4172.571Zm-7.077,5a2.624,2.624,0,0,1-.735-2.016v-3.1h-1.162v-1.679h1.162v-1.834h2.184v1.834h1.875v1.679h-1.875v3.066a1.025,1.025,0,0,0,.245.735.908.908,0,0,0,.692.26,1.411,1.411,0,0,0,.883-.28l.587,1.541a2.268,2.268,0,0,1-.79.356,4.046,4.046,0,0,1-.988.119A2.932,2.932,0,0,1-5697.4-4167.574Zm-9.793-.168a3.4,3.4,0,0,1-.869-2.533v-4.256h2.184v3.934q0,1.819,1.526,1.82a1.639,1.639,0,0,0,1.26-.512,2.154,2.154,0,0,0,.477-1.518v-3.724h2.183V-4167h-2.071v-.9a2.9,2.9,0,0,1-1.037.748,3.252,3.252,0,0,1-1.3.26A3.211,3.211,0,0,1-5707.192-4167.742Zm-4.984.743v-3.977a1.965,1.965,0,0,0-.392-1.337,1.435,1.435,0,0,0-1.134-.441,1.745,1.745,0,0,0-1.317.51,2.119,2.119,0,0,0-.489,1.52V-4167h-2.184v-7.532h2.085v.881a2.885,2.885,0,0,1,1.078-.735,3.751,3.751,0,0,1,1.414-.258,3.1,3.1,0,0,1,2.261.84,3.329,3.329,0,0,1,.861,2.491V-4167Zm-9.729,0v-7.532h2.184V-4167Zm-4.145,0v-3.977a2.037,2.037,0,0,0-.371-1.337,1.3,1.3,0,0,0-1.057-.441,1.553,1.553,0,0,0-1.217.5,2.139,2.139,0,0,0-.448,1.476V-4167h-2.184v-3.977q0-1.777-1.428-1.778a1.538,1.538,0,0,0-1.2.5,2.139,2.139,0,0,0-.448,1.476V-4167h-2.184v-7.532h2.085v.867a2.766,2.766,0,0,1,1.03-.728,3.479,3.479,0,0,1,1.337-.251,3.235,3.235,0,0,1,1.441.314,2.552,2.552,0,0,1,1.036.917,3.108,3.108,0,0,1,1.169-.91,3.7,3.7,0,0,1,1.547-.322,3.036,3.036,0,0,1,2.248.833,3.391,3.391,0,0,1,.833,2.5V-4167Zm-18.941,0v-7.98h-1.96v-1.82h4.228v9.8Zm-9.171,0v-3.977a1.965,1.965,0,0,0-.392-1.337,1.437,1.437,0,0,0-1.134-.441,1.739,1.739,0,0,0-1.315.51,2.118,2.118,0,0,0-.49,1.52V-4167h-2.184v-7.532h2.085v.881a2.905,2.905,0,0,1,1.078-.735,3.763,3.763,0,0,1,1.415-.258,3.1,3.1,0,0,1,2.261.84,3.334,3.334,0,0,1,.86,2.491V-4167Zm-9.954,0v-9.8h2.268v9.8Zm42.323-8.933a1.132,1.132,0,0,1-.378-.867,1.132,1.132,0,0,1,.378-.868,1.386,1.386,0,0,1,.98-.351,1.419,1.419,0,0,1,.979.336,1.075,1.075,0,0,1,.378.839,1.19,1.19,0,0,1-.378.9,1.367,1.367,0,0,1-.979.356A1.386,1.386,0,0,1-5721.794-4175.933Zm-3.969-6.352v-10.247h2.087v.867a2.9,2.9,0,0,1,2.365-.979,3.842,3.842,0,0,1,1.912.483,3.473,3.473,0,0,1,1.35,1.357,4.092,4.092,0,0,1,.49,2.038,4.086,4.086,0,0,1-.49,2.036,3.471,3.471,0,0,1-1.35,1.359,3.842,3.842,0,0,1-1.912.483,2.91,2.91,0,0,1-2.268-.91v3.513Zm2.7-8a2.116,2.116,0,0,0-.539,1.52,2.111,2.111,0,0,0,.539,1.518,1.813,1.813,0,0,0,1.378.567,1.814,1.814,0,0,0,1.379-.567,2.109,2.109,0,0,0,.54-1.518,2.114,2.114,0,0,0-.54-1.52,1.821,1.821,0,0,0-1.379-.567A1.82,1.82,0,0,0-5723.067-4190.286Zm-34.412,4.8a4.859,4.859,0,0,1-1.9-1.807,4.967,4.967,0,0,1-.693-2.61,4.972,4.972,0,0,1,.693-2.612,4.859,4.859,0,0,1,1.9-1.806,5.658,5.658,0,0,1,2.722-.651,5.708,5.708,0,0,1,2.3.448,4.621,4.621,0,0,1,1.729,1.288l-1.456,1.344a3.129,3.129,0,0,0-2.464-1.148,3.273,3.273,0,0,0-1.623.4,2.838,2.838,0,0,0-1.114,1.114,3.278,3.278,0,0,0-.4,1.624,3.283,3.283,0,0,0,.4,1.625,2.828,2.828,0,0,0,1.114,1.112,3.262,3.262,0,0,0,1.623.4,3.115,3.115,0,0,0,2.464-1.162l1.456,1.345a4.553,4.553,0,0,1-1.736,1.3,5.782,5.782,0,0,1-2.31.447A5.629,5.629,0,0,1-5757.479-4185.482Zm61.76.1a3.633,3.633,0,0,1-1.512-1.379,3.8,3.8,0,0,1-.532-2,3.841,3.841,0,0,1,.526-2,3.682,3.682,0,0,1,1.441-1.386,4.237,4.237,0,0,1,2.051-.5,4.2,4.2,0,0,1,2,.476,3.481,3.481,0,0,1,1.407,1.365,4.072,4.072,0,0,1,.511,2.065c0,.028-.013.224-.042.589h-5.7a1.77,1.77,0,0,0,.728,1.1,2.406,2.406,0,0,0,1.429.406,2.9,2.9,0,0,0,1.042-.174,2.531,2.531,0,0,0,.847-.554l1.162,1.26a3.9,3.9,0,0,1-3.108,1.218A4.912,4.912,0,0,1-5695.719-4185.385Zm.743-5.186a1.781,1.781,0,0,0-.616,1.147h3.709a1.8,1.8,0,0,0-.616-1.141,1.839,1.839,0,0,0-1.231-.426A1.872,1.872,0,0,0-5694.977-4190.571Zm-7.077,5a2.625,2.625,0,0,1-.735-2.016v-3.095h-1.162v-1.679h1.162v-1.834h2.184v1.834h1.875v1.679h-1.875v3.066a1.028,1.028,0,0,0,.245.735.909.909,0,0,0,.693.26,1.4,1.4,0,0,0,.882-.28l.587,1.54a2.254,2.254,0,0,1-.791.357,4,4,0,0,1-.988.119A2.934,2.934,0,0,1-5702.054-4185.574Zm-8.352.188a3.63,3.63,0,0,1-1.511-1.379,3.786,3.786,0,0,1-.532-2,3.854,3.854,0,0,1,.525-2,3.692,3.692,0,0,1,1.441-1.386,4.24,4.24,0,0,1,2.051-.5,4.2,4.2,0,0,1,2,.476,3.484,3.484,0,0,1,1.407,1.365,4.072,4.072,0,0,1,.51,2.065c0,.028-.013.224-.042.589h-5.7a1.774,1.774,0,0,0,.728,1.1,2.406,2.406,0,0,0,1.428.406,2.9,2.9,0,0,0,1.043-.174,2.519,2.519,0,0,0,.847-.554l1.163,1.26a3.908,3.908,0,0,1-3.108,1.218A4.912,4.912,0,0,1-5710.405-4185.385Zm.742-5.186a1.79,1.79,0,0,0-.616,1.147h3.71a1.811,1.811,0,0,0-.615-1.141,1.844,1.844,0,0,0-1.232-.426A1.874,1.874,0,0,0-5709.663-4190.571Zm-38.507,5.186a3.678,3.678,0,0,1-1.476-1.379,3.786,3.786,0,0,1-.532-2,3.8,3.8,0,0,1,.532-2,3.7,3.7,0,0,1,1.476-1.379,4.525,4.525,0,0,1,2.135-.5,4.48,4.48,0,0,1,2.129.5,3.711,3.711,0,0,1,1.469,1.379,3.8,3.8,0,0,1,.532,2,3.791,3.791,0,0,1-.532,2,3.692,3.692,0,0,1-1.469,1.379,4.469,4.469,0,0,1-2.129.5A4.514,4.514,0,0,1-5748.17-4185.385Zm.75-4.9a2.1,2.1,0,0,0-.547,1.52,2.094,2.094,0,0,0,.547,1.518,1.836,1.836,0,0,0,1.385.567,1.814,1.814,0,0,0,1.379-.567,2.111,2.111,0,0,0,.539-1.518,2.116,2.116,0,0,0-.539-1.52,1.821,1.821,0,0,0-1.379-.567A1.843,1.843,0,0,0-5747.42-4190.286ZM-5716.1-4185v-10.389h2.184V-4185Zm-13.8,0v-3.977a2.045,2.045,0,0,0-.37-1.337,1.3,1.3,0,0,0-1.057-.441,1.555,1.555,0,0,0-1.218.5,2.142,2.142,0,0,0-.448,1.476V-4185h-2.184v-3.977q0-1.777-1.427-1.778a1.539,1.539,0,0,0-1.205.5,2.139,2.139,0,0,0-.448,1.476V-4185h-2.184v-7.532h2.086v.867a2.768,2.768,0,0,1,1.028-.728,3.483,3.483,0,0,1,1.337-.251,3.235,3.235,0,0,1,1.441.314,2.545,2.545,0,0,1,1.037.917,3.1,3.1,0,0,1,1.169-.909,3.7,3.7,0,0,1,1.547-.322,3.034,3.034,0,0,1,2.247.833,3.393,3.393,0,0,1,.833,2.5V-4185Z" transform="translate(5771 4227)" stroke="rgba(0,0,0,0)" stroke-width="1"/>
  </g>
</svg>
