<svg id="グループ_1014" data-name="グループ 1014" xmlns="http://www.w3.org/2000/svg" width="124.604" height="231.014" viewBox="0 0 124.604 231.014">
  <g id="グループ_1004" data-name="グループ 1004">
    <g id="グループ_968" data-name="グループ 968" transform="translate(36.307)">
      <g id="グループ_967" data-name="グループ 967">
        <g id="グループ_953" data-name="グループ 953" transform="translate(20.022 55.349)">
          <g id="グループ_952" data-name="グループ 952">
            <path id="パス_741" data-name="パス 741" d="M386.825,49.684,383.1,47.506l.053.037,3.719,2.182c-.02-.012-.045-.025-.049-.041Z" transform="translate(-383.102 -47.506)" fill="#8f2a1f"/>
          </g>
        </g>
        <g id="グループ_955" data-name="グループ 955" transform="translate(42.9)">
          <g id="グループ_954" data-name="グループ 954">
            <path id="パス_742" data-name="パス 742" d="M396.805,36.644l-3.719-2.182c-1.134-.666-2.7-.575-4.417.427l3.718,2.182c1.721-1,3.287-1.093,4.417-.427Z" transform="translate(-388.67 -34.035)" fill="#c74536"/>
          </g>
        </g>
        <g id="グループ_957" data-name="グループ 957" transform="translate(0.082 59.745)">
          <g id="グループ_956" data-name="グループ 956">
            <path id="パス_743" data-name="パス 743" d="M381.959,50.758l-3.71-2.182c0,1.964.7,3.357,1.812,4.014l3.723,2.178c-1.118-.653-1.816-2.046-1.824-4.01Z" transform="translate(-378.249 -48.576)" fill="#ab3529"/>
          </g>
        </g>
        <g id="グループ_958" data-name="グループ 958" transform="translate(0.002 33.069)">
          <path id="パス_744" data-name="パス 744" d="M381.953,44.264l-3.723-2.181.08,26.675,3.711,2.183Z" transform="translate(-378.229 -42.083)" fill="#ab3529"/>
        </g>
        <g id="グループ_959" data-name="グループ 959" transform="translate(6.197 0.855)">
          <path id="パス_745" data-name="パス 745" d="M420.159,36.426l-3.72-2.183-36.7,21.385,3.72,2.183Z" transform="translate(-379.737 -34.243)" fill="#c74536"/>
        </g>
        <g id="グループ_961" data-name="グループ 961" transform="translate(0 22.241)">
          <g id="グループ_960" data-name="グループ 960">
            <path id="パス_746" data-name="パス 746" d="M388.148,41.63l-3.723-2.182a13.866,13.866,0,0,0-6.2,10.827l3.727,2.182a13.822,13.822,0,0,1,6.192-10.827Z" transform="translate(-378.229 -39.448)" fill="#8f2a1f"/>
          </g>
        </g>
        <g id="グループ_962" data-name="グループ 962" transform="translate(3.726 2.182)">
          <path id="パス_747" data-name="パス 747" d="M385.328,56.806a13.822,13.822,0,0,0-6.192,10.827l.066,26.678c.016,3.957,2.827,5.576,6.245,3.587l13.707-7.987a.8.8,0,0,0,.419.152l17.5,1.849a1.107,1.107,0,0,0,.686-.123c.411-.234.551-.76.321-1.413l-3.353-9.541,7.421-4.322a13.857,13.857,0,0,0,6.184-10.831l-.07-26.674c-.008-3.965-2.815-5.58-6.233-3.587Z" transform="translate(-379.136 -34.566)" fill="#ed604f"/>
        </g>
        <g id="グループ_966" data-name="グループ 966" transform="translate(14.533 25.31)">
          <g id="グループ_963" data-name="グループ 963" transform="translate(10.975 6.391)">
            <path id="パス_748" data-name="パス 748" d="M388,42.245a7.937,7.937,0,0,0-3.562,6.233c.008,2.289,1.611,3.209,3.583,2.063a7.907,7.907,0,0,0,3.558-6.221C391.57,42.019,389.976,41.095,388,42.245Z" transform="translate(-384.437 -41.751)" fill="#efefef"/>
          </g>
          <g id="グループ_964" data-name="グループ 964" transform="translate(0 12.787)">
            <path id="パス_749" data-name="パス 749" d="M385.333,43.8a7.964,7.964,0,0,0-3.566,6.237c.008,2.284,1.607,3.209,3.579,2.058a7.91,7.91,0,0,0,3.566-6.221C388.9,43.577,387.3,42.653,385.333,43.8Z" transform="translate(-381.766 -43.307)" fill="#efefef"/>
          </g>
          <g id="グループ_965" data-name="グループ 965" transform="translate(21.937)">
            <path id="パス_750" data-name="パス 750" d="M390.68,40.688a7.958,7.958,0,0,0-3.575,6.241c.008,2.289,1.627,3.2,3.587,2.054a7.92,7.92,0,0,0,3.57-6.221C394.254,40.462,392.644,39.541,390.68,40.688Z" transform="translate(-387.105 -40.195)" fill="#efefef"/>
          </g>
        </g>
      </g>
    </g>
    <g id="グループ_1003" data-name="グループ 1003" transform="translate(0 4.382)">
      <g id="グループ_1002" data-name="グループ 1002">
        <g id="グループ_970" data-name="グループ 970" transform="translate(9.321 65.336)">
          <g id="グループ_969" data-name="グループ 969">
            <path id="パス_751" data-name="パス 751" d="M376.311,53.678,371.755,51c-.136.559-.119.892.02.97l4.561,2.679c-.14-.086-.156-.411-.025-.974Z" transform="translate(-371.661 -51.003)" fill="#e68027"/>
          </g>
        </g>
        <g id="グループ_972" data-name="グループ 972" transform="translate(33.184 19.178)">
          <g id="グループ_971" data-name="グループ 971">
            <path id="パス_752" data-name="パス 752" d="M384.536,42.436l-4.552-2.667a2.531,2.531,0,0,1,1.044,2.317,7.94,7.94,0,0,1-3.558,6.225l4.557,2.675a7.93,7.93,0,0,0,3.558-6.225,2.536,2.536,0,0,0-1.048-2.326Z" transform="translate(-377.469 -39.769)" fill="#9e7907"/>
          </g>
        </g>
        <g id="グループ_974" data-name="グループ 974" transform="translate(33.16 18.933)">
          <g id="グループ_973" data-name="グループ 973">
            <path id="パス_753" data-name="パス 753" d="M384.555,42.621,380,39.954a2.5,2.5,0,0,0-2.539.247l4.556,2.675a2.506,2.506,0,0,1,2.535-.255Z" transform="translate(-377.463 -39.709)" fill="#9f9f9f"/>
          </g>
        </g>
        <g id="グループ_976" data-name="グループ 976" transform="translate(29.589 19.424)">
          <g id="グループ_975" data-name="グループ 975">
            <path id="パス_754" data-name="パス 754" d="M384.721,42.5l-4.556-2.675a7.962,7.962,0,0,0-3.571,6.245,2.547,2.547,0,0,0,1.039,2.305L382.2,51.05a2.523,2.523,0,0,1-1.048-2.309,7.993,7.993,0,0,1,3.57-6.237Z" transform="translate(-376.594 -39.829)" fill="#9f9f9f"/>
          </g>
        </g>
        <g id="グループ_977" data-name="グループ 977" transform="translate(9.413 53.234)">
          <path id="パス_755" data-name="パス 755" d="M379.207,50.736l-4.562-2.679-2.961,12.1,4.558,2.674Z" transform="translate(-371.684 -48.058)" fill="#e68027"/>
        </g>
        <g id="グループ_979" data-name="グループ 979" transform="translate(22.206 25.567)">
          <g id="グループ_978" data-name="グループ 978">
            <path id="パス_756" data-name="パス 756" d="M381.872,44l-4.561-2.675a2.569,2.569,0,0,1,1.052,2.326,7.979,7.979,0,0,1-3.566,6.225l4.557,2.671a7.885,7.885,0,0,0,3.558-6.221A2.536,2.536,0,0,0,381.872,44Z" transform="translate(-374.797 -41.324)" fill="#9e7907"/>
          </g>
        </g>
        <g id="グループ_981" data-name="グループ 981" transform="translate(22.181 25.324)">
          <g id="グループ_980" data-name="グループ 980">
            <path id="パス_757" data-name="パス 757" d="M381.891,44.183l-4.561-2.675a2.5,2.5,0,0,0-2.539.251l4.557,2.675a2.518,2.518,0,0,1,2.543-.251Z" transform="translate(-374.791 -41.265)" fill="#9f9f9f"/>
          </g>
        </g>
        <g id="グループ_983" data-name="グループ 983" transform="translate(18.627 25.818)">
          <g id="グループ_982" data-name="グループ 982">
            <path id="パス_758" data-name="パス 758" d="M382.037,44.06l-4.557-2.675a7.952,7.952,0,0,0-3.554,6.237,2.527,2.527,0,0,0,1.04,2.313l4.557,2.671a2.544,2.544,0,0,1-1.039-2.313,7.962,7.962,0,0,1,3.554-6.233Z" transform="translate(-373.926 -41.385)" fill="#9f9f9f"/>
          </g>
        </g>
        <g id="グループ_984" data-name="グループ 984" transform="translate(23.183 27.998)">
          <path id="パス_759" data-name="パス 759" d="M378.589,42.41a7.962,7.962,0,0,0-3.554,6.233c.008,2.289,1.611,3.209,3.579,2.063a7.885,7.885,0,0,0,3.558-6.221C382.172,42.184,380.561,41.26,378.589,42.41Z" transform="translate(-375.035 -41.916)" fill="#efefef"/>
        </g>
        <g id="グループ_986" data-name="グループ 986" transform="translate(11.235 31.96)">
          <g id="グループ_985" data-name="グループ 985">
            <path id="パス_760" data-name="パス 760" d="M379.207,45.555l-4.561-2.675a2.554,2.554,0,0,1,1.04,2.326,7.935,7.935,0,0,1-3.558,6.221l4.557,2.675a7.923,7.923,0,0,0,3.558-6.221,2.556,2.556,0,0,0-1.035-2.326Z" transform="translate(-372.127 -42.88)" fill="#9e7907"/>
          </g>
        </g>
        <g id="グループ_988" data-name="グループ 988" transform="translate(11.21 31.719)">
          <g id="グループ_987" data-name="グループ 987">
            <path id="パス_761" data-name="パス 761" d="M379.225,45.737l-4.561-2.675a2.517,2.517,0,0,0-2.543.251l4.557,2.675a2.525,2.525,0,0,1,2.547-.251Z" transform="translate(-372.121 -42.821)" fill="#9f9f9f"/>
          </g>
        </g>
        <g id="グループ_990" data-name="グループ 990" transform="translate(7.656 32.211)">
          <g id="グループ_989" data-name="グループ 989">
            <path id="パス_762" data-name="パス 762" d="M379.367,45.616l-4.557-2.675a7.94,7.94,0,0,0-3.554,6.233,2.525,2.525,0,0,0,1.04,2.317l4.548,2.671a2.555,2.555,0,0,1-1.039-2.309,7.971,7.971,0,0,1,3.562-6.237Z" transform="translate(-371.256 -42.941)" fill="#9f9f9f"/>
          </g>
        </g>
        <g id="グループ_991" data-name="グループ 991" transform="translate(12.205 34.394)">
          <path id="パス_763" data-name="パス 763" d="M375.925,43.964a7.971,7.971,0,0,0-3.562,6.237c.008,2.284,1.619,3.209,3.587,2.059a7.923,7.923,0,0,0,3.558-6.221C379.5,43.742,377.906,42.818,375.925,43.964Z" transform="translate(-372.363 -43.472)" fill="#efefef"/>
        </g>
        <g id="グループ_992" data-name="グループ 992" transform="translate(4.558 2.671)">
          <path id="パス_764" data-name="パス 764" d="M409.19,36.525c3.09-1.8,5.629-.353,5.637,3.23l.07,24.061a12.514,12.514,0,0,1-5.6,9.783l-12.363,7.2a3.111,3.111,0,0,1-.378.579l-15.732,20.03a2.652,2.652,0,0,1-.612.616c-.361.21-.493-.119-.3-.933l2.967-12.1L376.2,92.881c-3.086,1.8-5.629.337-5.637-3.238L370.5,65.579a12.513,12.513,0,0,1,5.588-9.771Zm-5.506,26.949a7.93,7.93,0,0,0,3.558-6.225c-.008-2.3-1.611-3.217-3.583-2.071a7.993,7.993,0,0,0-3.57,6.237c.008,2.293,1.627,3.209,3.6,2.058Zm-10.979,6.393a7.885,7.885,0,0,0,3.558-6.221c0-2.3-1.611-3.225-3.583-2.075a7.962,7.962,0,0,0-3.554,6.233c.008,2.289,1.611,3.209,3.579,2.063Zm-10.97,6.393a7.923,7.923,0,0,0,3.558-6.221c0-2.3-1.6-3.221-3.583-2.075a7.97,7.97,0,0,0-3.562,6.233c.008,2.289,1.619,3.213,3.587,2.063Z" transform="translate(-370.502 -35.752)" fill="#ffb923"/>
        </g>
        <g id="グループ_993" data-name="グループ 993" transform="translate(34.146 21.606)">
          <path id="パス_765" data-name="パス 765" d="M381.273,40.853a7.993,7.993,0,0,0-3.57,6.237c.008,2.293,1.627,3.209,3.6,2.058a7.93,7.93,0,0,0,3.558-6.225C384.848,40.627,383.246,39.706,381.273,40.853Z" transform="translate(-377.703 -40.36)" fill="#efefef"/>
        </g>
        <g id="グループ_995" data-name="グループ 995" transform="translate(38.69)">
          <g id="グループ_994" data-name="グループ 994">
            <path id="パス_766" data-name="パス 766" d="M387.363,38.156l-4.552-2.671a3.939,3.939,0,0,0-4,.39l4.557,2.671c1.557-.9,2.979-.99,4-.39Z" transform="translate(-378.809 -35.101)" fill="#e68027"/>
          </g>
        </g>
        <g id="グループ_997" data-name="グループ 997" transform="translate(0.067 53.889)">
          <g id="グループ_996" data-name="グループ 996">
            <path id="パス_767" data-name="パス 767" d="M373.962,50.892l-4.552-2.675a3.965,3.965,0,0,0,1.647,3.628l4.557,2.667a3.951,3.951,0,0,1-1.652-3.62Z" transform="translate(-369.409 -48.217)" fill="#e68027"/>
          </g>
        </g>
        <g id="グループ_998" data-name="グループ 998" transform="translate(0 29.827)">
          <path id="パス_768" data-name="パス 768" d="M373.951,45.033l-4.558-2.672.068,24.063,4.55,2.672Z" transform="translate(-369.393 -42.361)" fill="#e68027"/>
        </g>
        <g id="グループ_999" data-name="グループ 999" transform="translate(5.597 0.773)">
          <path id="パス_769" data-name="パス 769" d="M408.4,37.962l-4.558-2.672L370.755,54.573l4.55,2.67Z" transform="translate(-370.755 -35.29)" fill="#e68027"/>
        </g>
        <g id="グループ_1001" data-name="グループ 1001" transform="translate(0.002 20.057)">
          <g id="グループ_1000" data-name="グループ 1000">
            <path id="パス_770" data-name="パス 770" d="M379.538,42.654l-4.548-2.671a12.47,12.47,0,0,0-5.6,9.771l4.557,2.671a12.513,12.513,0,0,1,5.588-9.771Z" transform="translate(-369.393 -39.983)" fill="#e68027"/>
          </g>
        </g>
      </g>
    </g>
  </g>
  <g id="グループ_1010" data-name="グループ 1010" transform="translate(11.7 75.039)">
    <g id="グループ_1009" data-name="グループ 1009">
      <path id="パス_771" data-name="パス 771" d="M381.254,65.52c.033-.2,3.377-1.906,3.517-2.038.522-.468,1.031-.953,1.561-1.418,1.019-.892,2.293-1.405,3.328-2.268.312-.267,1.171-1.249,1.615-1.2.1.016.173.115.222.21.744,1.459-1.089,2.334-1.976,3.016-.337.259-.629.641-.941.929q1.806-.382,3.612-.756c.694-.144,4.171-.978,4.318-.127.066.431-.518.637-.83.752A28.551,28.551,0,0,1,391.6,63.8c1.179-.222,2.354-.44,3.538-.657.53-.1,2.662-.39,2.757.468a.52.52,0,0,1-.349.538,17.922,17.922,0,0,1-5.054.9c1.307-.111,2.605-.226,3.9-.337.337-.029,1.011-.033,1.191.394.218.522-.452.814-.789.9a25.005,25.005,0,0,1-4.363.764c1.142.222,4.729-.255,4.076.588a1.316,1.316,0,0,1-.768.407c-1.7.468-2.7.785-4.392,1.253a16.442,16.442,0,0,1-2.568.44c-.892.066-1.578.127-2.461.247a19.776,19.776,0,0,1-4.779-.016Z" transform="translate(-344.218 -32.712)" fill="#e9c2b0"/>
      <path id="パス_772" data-name="パス 772" d="M381.159,73.4a5.167,5.167,0,0,0,.961-.1l21.308-5.07c.571-.107-1.68-8.715-2-8.649l-21.395,2.572a5.7,5.7,0,0,0-4.495,6.652A5.612,5.612,0,0,0,381.159,73.4Z" transform="translate(-362.289 -29.67)" fill="#1c2326"/>
      <g id="グループ_1005" data-name="グループ 1005" transform="translate(2.448 143.515)">
        <path id="パス_773" data-name="パス 773" d="M373.411,89.766s-1.368,4.639.115,6.278c.415.46,2.19.6,4.253.152,1.356-.3,2.819-1.122,4.154-1.311,3.932-.555,4.951-2.272,6.582-4.462,3.48-4.651-2.831-3.266-6.965-1.8A20.433,20.433,0,0,1,373.411,89.766Z" transform="translate(-372.836 -87.227)" fill="#0b0c0d"/>
        <path id="パス_774" data-name="パス 774" d="M377.337,89.76v-.9h-3.731V88.77L372.863,90l.394,1.9s2.12,1.487,2.547,1.376c.07-.016.14-.041.21-.062l3.254-1.894-.14-.349c.657-.234,1.327-.477,2.017-.748l.045-.025.016.008c.3-.119.608-.242.912-.362l.148-.086Z" transform="translate(-372.752 -82.431)" fill="#0b0c0d"/>
      </g>
      <path id="パス_775" data-name="パス 775" d="M379.286,145.81a15.935,15.935,0,0,1-6.451-2.712l.226-72.742L387.29,72.92l-.222,71.234C384.64,145.427,382.035,146.327,379.286,145.81Z" transform="translate(-370.391 3.84)" fill="#181d1f"/>
      <g id="グループ_1006" data-name="グループ 1006" transform="translate(15.129 145.124)">
        <path id="パス_776" data-name="パス 776" d="M376.5,90.155s-1.368,4.639.119,6.282c.4.46,2.19.6,4.253.148,1.352-.292,2.81-1.118,4.146-1.311,3.94-.551,4.955-2.268,6.591-4.458,3.48-4.655-2.839-3.266-6.969-1.8A20.439,20.439,0,0,1,376.5,90.155Z" transform="translate(-375.922 -87.619)" fill="#0b0c0d"/>
        <path id="パス_777" data-name="パス 777" d="M380.416,90.152v-.908h-3.722v-.082l-.744,1.224.39,1.9s2.112,1.491,2.551,1.376c.07-.016.14-.037.2-.058l3.262-1.894-.148-.353c.657-.23,1.336-.472,2.017-.74l.054-.029,0,0c.308-.119.62-.234.925-.366l.148-.078Z" transform="translate(-375.836 -82.821)" fill="#0b0c0d"/>
      </g>
      <path id="パス_778" data-name="パス 778" d="M383.687,139.881a14.95,14.95,0,0,0,6.5-2.732l1.1-54.943,1.2-4.072-16.036-5.226-.518,64.911C378.338,139.285,380.918,140.341,383.687,139.881Z" transform="translate(-360.745 11.773)" fill="#1c2326"/>
      <g id="グループ_1007" data-name="グループ 1007" transform="translate(0.882 25.778)">
        <path id="パス_779" data-name="パス 779" d="M391.889,69.79c0-4.306-4.663-8.378-9.154-10.416-1.7-.772-3.887.3-5.489,1.15a6.121,6.121,0,0,0-3.456,5.411c0,4.3.625,23.934,4.885,23.934S391.889,74.084,391.889,69.79Z" transform="translate(-368.304 -56.905)" fill="#fff"/>
        <path id="パス_780" data-name="パス 780" d="M390.1,64.582c-.587-.924-5.67-2.741-9.923-2.741s-6.389-3.825-6.389.473.625,23.934,4.885,23.934S392.4,68.206,390.1,64.582Z" transform="translate(-368.304 -53.283)" fill="#dcdcdc"/>
        <path id="パス_781" data-name="パス 781" d="M375.061,62.221c-.008,2.6,4.548,3.3,8.025,3.653l.021.008a6.784,6.784,0,0,0,1.117-1.286l.1-5.226-9.15-.8-.181,3.566C375.007,62.163,375.061,62.2,375.061,62.221Z" transform="translate(-364.57 -58.572)" fill="#e9c2b0"/>
        <path id="パス_782" data-name="パス 782" d="M388.394,64.658c.024-.551-1.824-4.043-2.293-3.665-1.779,1.422-6.972,1.109-8.226.448-1.117-.592-1-2.317-1-2.317s-7.116,6.282,2.728,8.218a9.632,9.632,0,0,0,5.987-.629C387.124,65.964,389.823,66.087,388.394,64.658Z" transform="translate(-366.44 -56.859)" fill="#fff"/>
        <path id="パス_783" data-name="パス 783" d="M377.637,115.456c6.8,3.829,15.806,3.961,22.323-.785a17.629,17.629,0,0,0,3.862-3.969l.666-28.19c-1.04-14.619-7.914-18.658-10.588-19.825,0,0-2.7,3.09-8.682,1.767-6.089-1.352-3.821-5-3.821-5-7.951.107-7.942,10.49-8.185,14.2-.44,6.993-.875,21.9-.727,33.561C373.15,110.016,374.769,113.845,377.637,115.456Z" transform="translate(-372.455 -55.833)" fill="#1a4b6c"/>
      </g>
      <g id="グループ_1008" data-name="グループ 1008" transform="translate(0 25.778)">
        <path id="パス_784" data-name="パス 784" d="M372.243,88.387a5.954,5.954,0,0,0,5.7,6.171h0a5.929,5.929,0,0,0,6.11-5.752l.916-23.26a5.938,5.938,0,0,0-5.691-6.171h0a5.932,5.932,0,0,0-6.114,5.756Z" transform="translate(-372.24 -56.088)" fill="#1c2326"/>
        <path id="パス_785" data-name="パス 785" d="M391.889,69.79c0-4.306-4.663-8.378-9.154-10.416-1.7-.772-3.887.3-5.489,1.15a6.121,6.121,0,0,0-3.456,5.411c0,4.3.625,23.934,4.885,23.934S391.889,74.084,391.889,69.79Z" transform="translate(-367.422 -56.905)" fill="#fff"/>
        <path id="パス_786" data-name="パス 786" d="M390.1,64.582c-.587-.924-5.67-2.741-9.923-2.741s-6.389-3.825-6.389.473.625,23.934,4.885,23.934S392.4,68.206,390.1,64.582Z" transform="translate(-367.422 -53.283)" fill="#dcdcdc"/>
        <path id="パス_787" data-name="パス 787" d="M375.061,62.221c-.008,2.6,4.548,3.3,8.025,3.653l.021.008a6.784,6.784,0,0,0,1.117-1.286l.1-5.226-9.15-.8-.181,3.566C375.007,62.163,375.061,62.2,375.061,62.221Z" transform="translate(-363.689 -58.572)" fill="#d9b4a4"/>
        <path id="パス_788" data-name="パス 788" d="M388.394,64.658c.024-.551-1.824-4.043-2.293-3.665-1.779,1.422-6.972,1.109-8.226.448-1.117-.592-1-2.317-1-2.317s-7.116,6.282,2.728,8.218a9.632,9.632,0,0,0,5.987-.629C387.124,65.964,389.823,66.087,388.394,64.658Z" transform="translate(-365.558 -56.859)" fill="#fff"/>
        <path id="パス_789" data-name="パス 789" d="M403.875,124.187l.612-41.675C403.448,67.892,396.669,63.747,394,62.58c0,0-2.8,3.2-8.785,1.874-6.089-1.352-3.821-5-3.821-5-7.951.107-7.942,10.49-8.185,14.2-.44,6.985-.875,33.762-.727,45.46Z" transform="translate(-371.573 -55.833)" fill="#31393d"/>
        <path id="パス_790" data-name="パス 790" d="M383.96,72.5c-.024-.193,2.63-2.86,2.72-3.024.353-.612.694-1.229,1.048-1.837.7-1.163,1.754-2.042,2.457-3.184.21-.349.731-1.545,1.171-1.639a.328.328,0,0,1,.271.131c1.159,1.159-.316,2.56-.949,3.484-.238.349-.395.8-.6,1.175,1.073-.616,2.137-1.229,3.2-1.845.62-.353,3.661-2.215,4.068-1.45.205.386-.3.764-.555.97a30.072,30.072,0,0,1-3.5,2.383c1.048-.575,2.087-1.146,3.143-1.722.485-.263,2.416-1.2,2.777-.407a.536.536,0,0,1-.172.62,17.567,17.567,0,0,1-4.528,2.412c1.2-.505,2.408-1.019,3.612-1.528.312-.131.949-.341,1.253.012.366.427-.181.916-.469,1.1a25.742,25.742,0,0,1-3.92,2.083c1.159-.148,4.425-1.709,4.06-.7a1.422,1.422,0,0,1-.6.62c-1.471.974-2.321,1.578-3.792,2.552a16.325,16.325,0,0,1-2.3,1.208c-.83.341-1.471.612-2.276,1a19.557,19.557,0,0,1-4.544,1.463Z" transform="translate(-335.806 -45.399)" fill="#e9c2b0"/>
        <path id="パス_791" data-name="パス 791" d="M386.23,83.437a5.273,5.273,0,0,0,.884-.4l18.53-11.624c.509-.284-4.618-7.141-4.9-6.973l-19.061,8.641a5.716,5.716,0,0,0-2.223,7.72A5.623,5.623,0,0,0,386.23,83.437Z" transform="translate(-351.964 -40.332)" fill="#1c2326"/>
      </g>
      <path id="パス_792" data-name="パス 792" d="M396.379,56.842c-11.316-8.842-16.772-2.124-17.265-1.734-1.964,1.565-5.013,4.544-5.637,7.33l-.008.012c-2.141,4.442.805,8.834,4.779,13a20.931,20.931,0,0,0,2.934,2.662c2.157,1.837,6.5,2.49,6.8,1.66.082-.205-.263-.834-.625-1.623.563-.329,1.167-.719,1.828-1.192,4.573-3.217,6.475-7.782,5.382-14.553l-.008-.012c2.7.542,3.229.23,3.229.23S398.741,58.679,396.379,56.842Z" transform="translate(-370.659 -52.298)" fill="#2b0d04"/>
      <path id="パス_793" data-name="パス 793" d="M377.318,69.035c.165,0,.049,2.975.115,3.008-.016.214-.189,1.582-.222,1.635l5.949-1.779c.263-.058.538-.123.814-.185a2.462,2.462,0,0,0,.9-.341,5.069,5.069,0,0,0,1.467-2.124,2.245,2.245,0,0,0,.152-.419c.082-.567-.481-.723-.308-1.3a6.7,6.7,0,0,1,.431-.834,1.375,1.375,0,0,0-.041-1.056,1.2,1.2,0,0,0,.518-.9,4.806,4.806,0,0,1,.131-1.007,4.59,4.59,0,0,1,1.114-1.372.677.677,0,0,0,.181-.579,4.039,4.039,0,0,0-.9-1.4,1.551,1.551,0,0,1-.7-1.319c.033-.423.255-.9.337-1.352a4.969,4.969,0,0,0-.386-2.305,2.126,2.126,0,0,1-.033-.226,22.071,22.071,0,0,1-2.539-.452c-1.8-.411-.9,3.377-1.524,3.883a13.051,13.051,0,0,0-1.524,2.124c-.037.316-.066.633-.1.953-.095.892-.374,1.9-.415,2.753-.033.538.251,1.056-.251,1.685-.218.284-1.1.39-1.109.267a8.227,8.227,0,0,0-.205-2.112c0-.029-.017-.058-.017-.078-.189-.583-.542-1.031-1.085-1.081a2.237,2.237,0,0,0-1.816,1.208,4.151,4.151,0,0,0-.394,2.769C376.016,68.1,376.451,69.031,377.318,69.035Z" transform="translate(-361.217 -44.814)" fill="#e9c2b0"/>
    </g>
    <path id="パス_794" data-name="パス 794" d="M384.835,90.7a5.891,5.891,0,0,0,7.56,3.591h0a5.971,5.971,0,0,0,3.558-7.634l-7.712-21.937a5.9,5.9,0,0,0-7.564-3.591h0a5.976,5.976,0,0,0-3.558,7.634Z" transform="translate(-358.17 -25.962)" fill="#1c2326"/>
  </g>
  <g id="グループ_1013" data-name="グループ 1013" transform="translate(58.005 41.725)">
    <path id="パス_795" data-name="パス 795" d="M400.229,63.156a4.3,4.3,0,0,1-1.286,2.445,5.118,5.118,0,0,1-2.013,1.438,42.366,42.366,0,0,1-4.651-2.6c-.805-.567-1.438-.974-2.276-1.5a17.519,17.519,0,0,1-2.252-1.717c-1.409-1.307-2.219-2.116-3.628-3.427a1.45,1.45,0,0,1-.534-.772c-.2-1.138,3.036,1.138,4.253,1.512a29.013,29.013,0,0,1-3.833-2.954c-.284-.255-.777-.871-.3-1.257.386-.32,1.031.021,1.352.222.723.464,1.442.924,2.169,1.389a17.015,17.015,0,0,1-3-2.5.558.558,0,0,1-.057-.694c.53-.768,2.453.592,2.93.961,1.027.805,2.05,1.611,3.082,2.416a29.282,29.282,0,0,1-3.349-3.193c-.238-.263-.711-.764-.411-1.13.575-.74,3.525,1.816,4.121,2.305q1.559,1.282,3.115,2.56c-.156-.431-.238-.941-.427-1.36-.518-1.105-1.845-2.864-.366-3.883a.328.328,0,0,1,.308-.082c.464.177.8,1.553.974,1.96.546,1.344,1.516,2.478,2.05,3.85.271.711.522,1.43.785,2.145C397.032,59.441,400.229,63.147,400.229,63.156Z" transform="translate(-383.51 -22.015)" fill="#deb89f"/>
    <path id="パス_796" data-name="パス 796" d="M405.832,78.287s7.182-1.381,6.11,8.09c-.041.4-5.07,2.412-5.07,2.412a3.964,3.964,0,0,0-2.457.07,10.071,10.071,0,0,0-2.206,1.627c-4.162,2.893-11.1,2.338-12.61.226-2.157-3.032,3.7-6.467,8.826-8.678A45.1,45.1,0,0,0,405.832,78.287Z" transform="translate(-366.013 61.591)" fill="#0b0c0d"/>
    <path id="パス_797" data-name="パス 797" d="M398.944,136.141a15.73,15.73,0,0,0,6.365-2.675l-.222-71.784-14.04,2.527.218,70.3C393.664,135.763,396.232,136.647,398.944,136.141Z" transform="translate(-360.079 10.188)" fill="#022540"/>
    <path id="パス_798" data-name="パス 798" d="M408.773,79.206s7.1-1.771,6.537,7.745c-.02.4-4.93,2.687-4.93,2.687a3.967,3.967,0,0,0-2.449.205,10.681,10.681,0,0,0-2.124,1.742c-4,3.119-10.95,2.946-12.569.92-2.317-2.9,3.34-6.66,8.345-9.146A45.281,45.281,0,0,0,408.773,79.206Z" transform="translate(-354.931 64.26)" fill="#0b0c0d"/>
    <path id="パス_799" data-name="パス 799" d="M402.7,130.527a14.8,14.8,0,0,1-6.422-2.691L395.2,73.62l-1.2-4.023,15.823-5.157.514,64.052C407.961,129.939,405.422,130.983,402.7,130.527Z" transform="translate(-350.874 18.765)" fill="#174361"/>
    <g id="グループ_1011" data-name="グループ 1011" transform="translate(9.96 27.496)">
      <path id="パス_800" data-name="パス 800" d="M400.948,80.991a5.751,5.751,0,0,1-6.9,4.314h0a5.787,5.787,0,0,1-4.269-6.956l5.559-23.1a5.527,5.527,0,0,1,6.755-4.2l.132-.111a5.79,5.79,0,0,1,4.277,6.952Z" transform="translate(-374.458 -50.882)" fill="#174361"/>
      <path id="パス_801" data-name="パス 801" d="M391.465,53.347l19.089,14.759a5.815,5.815,0,0,1,.625,8.156,5.7,5.7,0,0,1-8.086.629s-17.076-16.719-17.158-16.8C386.6,59.477,390.918,54.082,391.465,53.347Z" transform="translate(-385.934 -43.22)" fill="#174361"/>
    </g>
    <path id="パス_802" data-name="パス 802" d="M408.143,57.3c0-4.055-3.316-6.706-7.338-6.706a11.124,11.124,0,0,0-5.169,1.085,5.74,5.74,0,0,0-3.271,5.107c0,4.059.587,22.578,4.606,22.578S408.143,61.356,408.143,57.3Z" transform="translate(-355.982 -24.279)" fill="#fff"/>
    <path id="パス_803" data-name="パス 803" d="M407.752,55.7c-.55-.875-5.346-2.584-9.368-2.584s-6.019-3.608-6.019.448.587,22.578,4.606,22.578S409.93,59.115,407.752,55.7Z" transform="translate(-355.982 -21.052)" fill="#dcdcdc"/>
    <path id="パス_804" data-name="パス 804" d="M398.669,53.677l-1.4-.814-1.4-.813-2.777,15.723,1.143,4.159,3.371-3.413Z" transform="translate(-353.722 -19.757)" fill="#ff5542"/>
    <path id="パス_805" data-name="パス 805" d="M397.275,53.867c.2.32.2.982,0,1.064l-1.414.583c-.2.082-.526-.111-.731-.427l-1.405-2.223c-.21-.325-.21-.986,0-1.064l1.775.095Z" transform="translate(-352.242 -20.533)" fill="#ff5542"/>
    <path id="パス_806" data-name="パス 806" d="M421.413,113.633l-.37-27.862c-2.256-22.783.481-27.788-.789-29.768-.4-.625-7.24-3.143-8.92-3.8l-9.82,19.973L400.4,50.859c-7.507.086-7.548.07-8.641,9.775-.633,5.691-1.109,41.034-.85,52.712Z" transform="translate(-360.742 -23.459)" fill="#1a4b6c"/>
    <path id="パス_807" data-name="パス 807" d="M396.475,57.256l4.759-3.84-3.776-1.681-3.447.351Z" transform="translate(-350.862 -20.734)" fill="#fff"/>
    <path id="パス_808" data-name="パス 808" d="M393.946,56.452l-.983-3.25.5-2.054,3.808,2.766Z" transform="translate(-354.123 -22.562)" fill="#fff"/>
    <path id="パス_809" data-name="パス 809" d="M395.113,57.234a6.311,6.311,0,0,0,3.365-.247,5.069,5.069,0,0,0,2.646-2.042l.074-4.269-7.462-.649-.267,5.259A2.351,2.351,0,0,0,395.113,57.234Z" transform="translate(-352.549 -26.045)" fill="#d9b4a4"/>
    <path id="パス_810" data-name="パス 810" d="M410.69,62.3c-3.591,5.444-6.512,9.438-11.135,6.377-3.842-2.535-7.022-8.267-7.367-13.822a15.188,15.188,0,0,1,.172-3.382c.164-.953,10.21-7.207,10.21-7.207s4.1-.485,6.545.978C416.024,49.4,412.634,59.342,410.69,62.3Z" transform="translate(-356.61 -44.19)" fill="#594a42"/>
    <path id="パス_811" data-name="パス 811" d="M408.421,55.884c-.3,1.935-1.623,7.618-3.032,8.661-1.98,1.467-6.586,3.792-9.191,2.022-3.468-2.363-4.035-8.7-4.027-14.907s4.688-7.379,8.678-4.729S409.371,49.749,408.421,55.884Z" transform="translate(-356.585 -39.811)" fill="#e9c2b0"/>
    <path id="パス_812" data-name="パス 812" d="M393.433,71.158,399.81,67.3l1.011-4.976a13.274,13.274,0,0,0,3.1-3.414c2.7-5.847-.67-7.729-.67-7.729Z" transform="translate(-352.661 -22.445)" fill="#022540"/>
    <path id="パス_813" data-name="パス 813" d="M396.068,72.177l-3.341-5.387.246-4.811a64.308,64.308,0,0,1-.361-6.829c.353-3.912,2.33-4.294,2.33-4.294Z" transform="translate(-355.296 -23.465)" fill="#022540"/>
    <g id="グループ_1012" data-name="グループ 1012" transform="translate(35.565 0.067)">
      <path id="パス_814" data-name="パス 814" d="M402.562,44.217c-.189-.242-10,3.9-10.21,7.207a28.761,28.761,0,0,0-.172,3.382,5.861,5.861,0,0,1,.156-.657,2,2,0,0,1,2.408-1.208,11.509,11.509,0,0,1,3.09.785l.086,0c2.054.818,5.21.612,5.653,2.962a11.34,11.34,0,0,1,.054,2.49c-.025.851.156,1.623.074,2.486-.066.546-.5,1.4.016,1.541.23.062,5.391-1,3.932-.173.518-.058-.267,1.044-1.064,4.051.115-.341,2.778-4.791,2.778-4.791v-9.8S402.866,44.64,402.562,44.217Z" transform="translate(-392.166 -44.207)" fill="#594a42"/>
      <path id="パス_815" data-name="パス 815" d="M399.365,48.693a1.19,1.19,0,0,0-1.5-.785,2.942,2.942,0,0,0-1.479,1.446,19.04,19.04,0,0,0-1.134,2.745c-.033.094,1.187,1.771,1.072,1.672,1.126.152,2.067-1.109,2.593-2.35A3.98,3.98,0,0,0,399.365,48.693Z" transform="translate(-382.572 -32.876)" fill="#e9c2b0"/>
    </g>
    <path id="パス_816" data-name="パス 816" d="M410.268,81.09a4.99,4.99,0,0,1-4.088,5.756h0a4.967,4.967,0,0,1-5.7-4.138l-4.121-24.928a5.015,5.015,0,0,1,4.1-5.765h0a4.965,4.965,0,0,1,5.7,4.138Z" transform="translate(-343.784 -20.068)" fill="#174361"/>
    <path id="パス_817" data-name="パス 817" d="M401.518,65.106c-.16.033-1.569,2.975-1.668,3.1-.4.46-.809.92-1.2,1.385-.744.9-1.159,2.022-1.882,2.925-.222.275-1.044,1.044-1,1.43a.3.3,0,0,0,.181.189c1.27.629,1.989-.982,2.552-1.767.218-.3.538-.555.781-.834-.2,1.056-.39,2.108-.579,3.168-.115.6-.764,3.644-.029,3.76.366.062.53-.464.624-.731a24.2,24.2,0,0,0,.937-3.566c-.164,1.027-.337,2.054-.5,3.082-.074.473-.279,2.338.456,2.408a.436.436,0,0,0,.452-.316,16.01,16.01,0,0,0,.682-4.417c-.078,1.134-.148,2.272-.222,3.414-.025.3-.016.875.362,1.023.456.185.686-.4.76-.7a22.1,22.1,0,0,0,.575-3.813c.214.99-.131,4.125.579,3.538a1.189,1.189,0,0,0,.337-.666c.37-1.487.616-2.367.994-3.854a13.715,13.715,0,0,0,.325-2.235c.049-.785.09-1.385.172-2.161a17.641,17.641,0,0,0-.1-4.162Z" transform="translate(-345.4 20.832)" fill="#e9c2b0"/>
    <path id="パス_818" data-name="パス 818" d="M409.785,63.276a5.031,5.031,0,0,1-.074.855l-5.276,25.442c-.09.509-8-.793-7.955-1.085l3.431-26.05a4.969,4.969,0,0,1,9.873.838Z" transform="translate(-343.186 -0.425)" fill="#174361"/>
  </g>
</svg>
