<svg xmlns="http://www.w3.org/2000/svg" xmlns:xlink="http://www.w3.org/1999/xlink" width="122.679" height="229.856" viewBox="0 0 122.679 229.856">
  <defs>
    <clipPath id="clip-path">
      <path id="パス_6509" data-name="パス 6509" d="M-56.95,319.1l-10.52,13.8a.319.319,0,0,0-.009.3.967.967,0,0,0,.672.517.329.329,0,0,0,.3-.086l10.223-14.014a.216.216,0,0,1-.2.06.626.626,0,0,1-.47-.362A.185.185,0,0,1-56.95,319.1Z" transform="translate(67.51 -319.104)" fill="#9cb5cc"/>
    </clipPath>
  </defs>
  <g id="グループ_6337" data-name="グループ 6337" transform="translate(80.156 -305.896)">
    <g id="グループ_6301" data-name="グループ 6301" transform="translate(-2.221 305.895)">
      <path id="パス_6452" data-name="パス 6452" d="M-50.9,321.476c-1.189-3.515-5.51-6.914-5.178-10.611a30,30,0,0,0-1.012-3.132c-2.481,19.149-1.758,36.424,4.666,37.6C-49.957,345.786-50.367,323.083-50.9,321.476Z" transform="translate(74.148 -299.886)" fill="#160503"/>
      <g id="グループ_6294" data-name="グループ 6294" transform="translate(0 27.612)">
        <path id="パス_6453" data-name="パス 6453" d="M-59.92,340.134a4.516,4.516,0,0,0,3.3,5.471h0a4.517,4.517,0,0,0,5.475-3.291l3.123-24.4a4.517,4.517,0,0,0-3.3-5.475h0a4.53,4.53,0,0,0-5.475,3.3Z" transform="translate(68.723 -312.305)" fill="#fff"/>
        <path id="パス_6454" data-name="パス 6454" d="M-48.014,318.365a4.409,4.409,0,0,1,2.688,5.643l-8.327,25.016a9.829,9.829,0,0,0-4.019-3.106,8.666,8.666,0,0,0-4.157-.327l8.177-24.538A4.416,4.416,0,0,1-48.014,318.365Z" transform="translate(62.844 -293.1)" fill="#71cff3"/>
        <path id="パス_6455" data-name="パス 6455" d="M-56.713,324.74c-2.3-.918-4.562-.659-5.045.56s.987,2.96,3.287,3.869,4.566.663,5.053-.56S-54.4,325.649-56.713,324.74Z" transform="translate(62.772 -272.993)" fill="#fff"/>
        <path id="パス_6456" data-name="パス 6456" d="M-57.11,324.747c-2.081-.823-4.123-.6-4.566.5s.9,2.68,2.985,3.5,4.123.6,4.566-.513S-55.025,325.57-57.11,324.747Z" transform="translate(63.083 -272.789)" fill="#dcdcdc"/>
        <path id="パス_6457" data-name="パス 6457" d="M-53.861,326.117a6.678,6.678,0,0,0-4.73-1.844,33.873,33.873,0,0,0-1.9,3.808c-1.012,2.188-1.844,6.165-1.5,7.9.75,3.8,2.486,2.516,4.041,2,2.356-.784,2.257-6.746,2.878-9.667A4.977,4.977,0,0,1-53.861,326.117Z" transform="translate(62.065 -272.815)" fill="#e9c2b0"/>
        <path id="パス_6458" data-name="パス 6458" d="M-59.379,325.65a9.434,9.434,0,0,0,.892,4.45c.991,2.076-.875,3.214-2.563-.383-1.486-3.175-.435-4.468.517-4.661A.91.91,0,0,1-59.379,325.65Z" transform="translate(62.969 -270.228)" fill="#e9c2b0"/>
      </g>
      <g id="グループ_6300" data-name="グループ 6300" transform="translate(10.767)">
        <path id="パス_6459" data-name="パス 6459" d="M-48.347,315.472c-.047-.7-.026-1.753-.551-2.266l-.022,0c-.108-.642-.207-1.284-.327-1.917.056-.5.039-1.021.073-1.521.009-.116.03-.233.039-.349a22.607,22.607,0,0,0-4.213-2.6,6.06,6.06,0,0,0-.065,3.744.184.184,0,0,0,.353,0,3.762,3.762,0,0,0,.1-.435c.043.831.1,1.663.134,2.481.1,2.175-.5,4.278-.435,6.41a.245.245,0,0,0,.37.2c-.009.672,0,1.348.03,2.029.009.19.009.4.009.595-1.146,2.912-4.394,7.853-2.615,10.9,1.413,2.4,6.018,12.9,6.557,10.447.569-2.542,4.437-6.953,4.519-10.094.181-7.431,1.508-13.854-1.37-22.724C-45.757,310.023-48.321,315.817-48.347,315.472Z" transform="translate(71.412 -302.86)" fill="#160503"/>
        <path id="パス_6460" data-name="パス 6460" d="M-58.423,337.876h15.862s3.007-19.588-.788-24.392c-1.59-2-7.4-2.064-9.426-.5C-57.841,316.862-58.423,337.876-58.423,337.876Z" transform="translate(63.348 -286.071)" fill="#fff"/>
        <g id="グループ_6296" data-name="グループ 6296" transform="translate(5.272 98.288)">
          <path id="パス_6461" data-name="パス 6461" d="M-56.107,339.328c.211,2.568.284,5.238.366,6.393l1.206.112c-.026-2.52-.246-4.631-.327-6.544Z" transform="translate(65.737 -293.719)"/>
          <g id="グループ_6295" data-name="グループ 6295">
            <path id="パス_6462" data-name="パス 6462" d="M-48.148,328.711c.2,1.973.392,3.933.582,5.9.3,3.145,1.055,6.3.836,9.422-.573,7.931-1.46,15.84-2.335,23.75l1.581,6.613-2.632,9.335-6.936.121c.607-.009,2.193-13.23,2.339-14.587.409-3.632-.164-6.677-.676-10.249q-.989-6.908-1.973-13.816a30.376,30.376,0,0,1-.564-6.565,25.7,25.7,0,0,0,.03-3.1c-.047-.862-.646-2.572-.375-3.369.409-1.176,2.434-1.3,3.567-1.611C-52.521,329.935-50.328,329.327-48.148,328.711Z" transform="translate(58.342 -328.711)" fill="#ba8b75"/>
            <path id="パス_6463" data-name="パス 6463" d="M-58.043,350.346l.034,1.822,5.032-.091a2.2,2.2,0,0,0,2.115-1.693l1.74-7.2.646-2.292-.491-2.051s-3.813,9.926-4.23,9.934-4.032-.06-4.032-.06l-.142-1.4Z" transform="translate(59.332 -295.208)" fill="#242424"/>
          </g>
        </g>
        <g id="グループ_6298" data-name="グループ 6298" transform="translate(14.786 102.687)">
          <path id="パス_6464" data-name="パス 6464" d="M-54.124,340.309c.129,2.572.121,5.239.164,6.4l1.211.142c.052-2.516-.112-4.631-.129-6.544Z" transform="translate(62.783 -294.744)"/>
          <g id="グループ_6297" data-name="グループ 6297">
            <path id="パス_6465" data-name="パス 6465" d="M-45.5,329.732q.194,2.96.383,5.919c.215,3.136.862,6.324.543,9.43-.823,7.918-1.951,15.793-3.08,23.659l1.374,6.669-2.925,9.249-6.927-.1c.6.009,2.6-13.157,2.8-14.5.513-3.615.039-6.673-.362-10.266q-.763-6.934-1.542-13.872a30.686,30.686,0,0,1-.353-6.583,24.733,24.733,0,0,0,.125-3.1c-.017-.862-.564-2.593-.263-3.382.444-1.15,2.468-1.215,3.614-1.5C-49.907,330.818-47.7,330.271-45.5,329.732Z" transform="translate(56.154 -329.732)" fill="#e9c2b0"/>
            <path id="パス_6466" data-name="パス 6466" d="M-56.108,351.07l-.026,1.822,5.032.069a2.209,2.209,0,0,0,2.167-1.624l1.964-7.151.715-2.266-.426-2.064s-4.123,9.8-4.541,9.792-4.028-.185-4.028-.185l-.095-1.4Z" transform="translate(56.134 -296.242)" fill="#242424"/>
          </g>
        </g>
        <path id="パス_6467" data-name="パス 6467" d="M-30,320.96c-.09-.676-9.641-8.861-9.641-8.861a60.361,60.361,0,0,1-3.007,6.6c-1.8,3.425-4.463,7.612-6.234,11.317a41.7,41.7,0,0,0-1.848,4.407,38.485,38.485,0,0,1-.414-4.459,47.889,47.889,0,0,1,2.8-17.887l-5.639,1.12a2.986,2.986,0,0,0-2.132,1.676c-.2.414-2.688,9.185-2.916,11.171-.4,3.416,1.31,9.938,1.753,13.3.474,3.7-3.214,56.852-2.072,70.728.5,6.195,29.156,6.781,33.378,2.227C-24.1,410.277-29.746,322.817-30,320.96Z" transform="translate(59.566 -285.461)" fill="#ff5542"/>
        <path id="パス_6468" data-name="パス 6468" d="M-55.9,322.672a4.755,4.755,0,0,0,3.468-.371c1.732-.7,2.58-3.261,2.58-3.261l.215-8.086-7.061.965s-.426,5.906-.31,7.974C-56.939,321.224-56.965,322.241-55.9,322.672Z" transform="translate(67.977 -289.162)" fill="#d9b4a4"/>
        <g id="グループ_6299" data-name="グループ 6299" transform="translate(17.648 32.183)">
          <path id="パス_6469" data-name="パス 6469" d="M-43.639,341.876a5.348,5.348,0,0,1-5.122,5.579h0a5.357,5.357,0,0,1-5.549-5.161l-.6-23.345a5.347,5.347,0,0,1,5.122-5.579h0a5.355,5.355,0,0,1,5.549,5.165Z" transform="translate(57.31 -313.366)" fill="#fff"/>
          <path id="パス_6470" data-name="パス 6470" d="M-47.572,319.211a5.235,5.235,0,0,0-6.091,4.269l-1.361,21.126c2.025-.875,6.845-.254,8.133.814l3.64-20.114A5.293,5.293,0,0,0-47.572,319.211Z" transform="translate(56.94 -294.307)" fill="#fff"/>
          <path id="パス_6471" data-name="パス 6471" d="M-46.584,326.089c-1.542-1.685-5.131-1.878-6.337-1.517a28.2,28.2,0,0,0-1.659,4.187c-.8,2.581-1.327,5.618-.392,7.388,1.995,3.774,3.675,3.123,5.165,2.02C-47.562,336.5-49.027,328.247-46.584,326.089Z" transform="translate(55.47 -276.802)" fill="#e9c2b0"/>
        </g>
        <path id="パス_6472" data-name="パス 6472" d="M-41.817,325.749c-4.472,4.373-6.268,2.3-10.74-.625s-6.483-6.173-5.415-12.338c1.129-6.544,9.835-8.534,15.173-5.51C-35.058,311.666-37.479,321.518-41.817,325.749Z" transform="translate(63.913 -305.896)" fill="#260905"/>
        <path id="パス_6473" data-name="パス 6473" d="M-43.24,316.031a22.487,22.487,0,0,1-1.025,6.9c-1.542,4.252-8.814,5.669-10.115,4.317-1.615-1.676-3.894-8.332-3.894-14.264s3.214-5.161,7.78-5.811C-47.664,306.765-43.387,310.022-43.24,316.031Z" transform="translate(63.837 -301.791)" fill="#e9c2b0"/>
        <path id="パス_6474" data-name="パス 6474" d="M-44.974,307.944c-3.9-2.813-9.167-1.383-10.71.831-1.818,2.619-2.2,7.392-3,8.965-.009.026,4.73-.021,4.769-.06.4-.439,1.1-2.481,1.452-2.942-.164.508-.556,2.623-.211,3.063a16.9,16.9,0,0,0,2.288-.121c.155-.142.539-1.676.672-1.84.013.25.073,2.089.09,2.1-.009.056,6.091,1.254,8.517.538C-41,318.516-41.829,310.215-44.974,307.944Z" transform="translate(62.491 -304.28)" fill="#260905"/>
        <path id="パス_6475" data-name="パス 6475" d="M-47.745,307.514s-8.689,5.781-7.082,7.479c2.49,2.636,2.878,20.838.745,25.434-1.495,3.231-1.495,8.289-1.594,11.838a.314.314,0,0,0,.534.211c4.554-4.864,8.659-12.239,9.921-18.675A46.167,46.167,0,0,0-47.745,307.514Z" transform="translate(72.435 -300.541)" fill="#260905"/>
      </g>
    </g>
    <g id="グループ_6316" data-name="グループ 6316" transform="translate(-80.156 334.375)">
      <g id="グループ_6303" data-name="グループ 6303" transform="translate(14.489 92.133)">
        <path id="パス_6476" data-name="パス 6476" d="M-75.2,343.923c-.207,2.421-.271,4.945-.353,6.04l-1.142.1c.026-2.378.233-4.368.314-6.178Z" transform="translate(77.114 -300.843)"/>
        <g id="グループ_6302" data-name="グループ 6302">
          <path id="パス_6477" data-name="パス 6477" d="M-75.423,333.893l-.543,5.57c-.293,2.964-1,5.945-.788,8.9.543,7.5,1.37,14.962,2.2,22.432l-1.495,6.246,2.494,8.823,6.539.112c-.573-.009-2.063-12.5-2.2-13.777-.388-3.429.155-6.311.638-9.68.616-4.355,1.245-8.693,1.87-13.049a29.528,29.528,0,0,0,.526-6.208,24.534,24.534,0,0,1-.026-2.925c.043-.823.607-2.434.353-3.184-.388-1.107-2.3-1.223-3.369-1.525C-71.292,335.043-73.355,334.47-75.423,333.893Z" transform="translate(76.793 -333.893)" fill="#ba8b75"/>
          <path id="パス_6478" data-name="パス 6478" d="M-67.586,354.331l-.026,1.715-4.752-.078a2.1,2.1,0,0,1-2-1.6l-1.646-6.8-.607-2.167.465-1.938s3.6,9.383,3.993,9.387,3.813-.06,3.813-.06l.142-1.318Z" transform="translate(77.365 -302.252)" fill="#242424"/>
        </g>
      </g>
      <path id="パス_6479" data-name="パス 6479" d="M-63.836,343.2a4.2,4.2,0,0,0,5.781,1.383h0a4.206,4.206,0,0,0,1.387-5.785l-11.1-18.386a4.215,4.215,0,0,0-5.79-1.379h0a4.2,4.2,0,0,0-1.374,5.786Z" transform="translate(95.359 -292.972)" fill="#fff"/>
      <path id="パス_6480" data-name="パス 6480" d="M-77.859,319.129c.564-.875,5.333,1.654,9.4,1.654s6.087-3.619,6.087.444-.586,22.634-4.653,22.634S-80.056,322.554-77.859,319.129Z" transform="translate(86.627 -291.207)" fill="#dcdcdc"/>
      <path id="パス_6481" data-name="パス 6481" d="M-77.539,325.735l8.551,16.344,1.133-23.793a9.7,9.7,0,0,1,4.834,1.237c2.723,6.716,5.592,10.313,2.667,17.792a41.4,41.4,0,0,0-2.451,17.5c.082.784.164,1.6.246,2.438-2.068.164-5.027,1.478-6.427,1.758a20.118,20.118,0,0,1-8.551-.129Z" transform="translate(88.814 -293.384)" fill="#dcdcdc"/>
      <g id="グループ_6304" data-name="グループ 6304" transform="translate(31.086 37.034)">
        <path id="パス_6482" data-name="パス 6482" d="M-72.594,333.747A4.212,4.212,0,0,1-70.38,328.2l16.194-7.1a9.451,9.451,0,0,0,.426,4.846,8.334,8.334,0,0,0,2.477,3.145L-67.024,336A4.265,4.265,0,0,1-72.594,333.747Z" transform="translate(72.94 -321.103)" fill="#fff"/>
        <path id="パス_6483" data-name="パス 6483" d="M-68.41,326.013c.857,2.223,2.5,3.657,3.683,3.209s1.435-2.611.573-4.834-2.5-3.649-3.679-3.205S-69.267,323.8-68.41,326.013Z" transform="translate(86.259 -321.102)" fill="#0b2130"/>
        <path id="パス_6484" data-name="パス 6484" d="M-68.4,325.577c.762,1.982,2.227,3.266,3.278,2.852,1.047-.392,1.28-2.318.517-4.295s-2.24-3.253-3.287-2.852S-69.159,323.608-68.4,325.577Z" transform="translate(86.479 -320.756)" fill="#dcdcdc"/>
      </g>
      <g id="グループ_6306" data-name="グループ 6306" transform="translate(5.485 96.285)">
        <path id="パス_6485" data-name="パス 6485" d="M-77.219,344.847c-.125,2.434-.116,4.958-.155,6.048l-1.142.134c-.047-2.369.09-4.364.116-6.182Z" transform="translate(80.066 -301.811)"/>
        <g id="グループ_6305" data-name="グループ 6305">
          <path id="パス_6486" data-name="パス 6486" d="M-77.931,334.857q-.181,2.791-.366,5.583c-.19,2.972-.806,5.975-.5,8.922.775,7.47,1.839,14.91,2.9,22.345L-77.2,378l2.766,8.737,6.561-.095c-.586.013-2.464-12.424-2.641-13.7-.491-3.416-.052-6.307.327-9.7q.724-6.546,1.456-13.1a28.478,28.478,0,0,0,.327-6.221,24.554,24.554,0,0,1-.1-2.925c.013-.818.534-2.456.246-3.192-.418-1.1-2.335-1.155-3.421-1.422Z" transform="translate(78.883 -334.857)" fill="#e9c2b0"/>
          <path id="パス_6487" data-name="パス 6487" d="M-69.166,355.012l.022,1.719-4.756.073a2.1,2.1,0,0,1-2.055-1.538l-1.852-6.755-.685-2.141.414-1.951s3.894,9.253,4.3,9.249,3.8-.168,3.8-.168l.09-1.331Z" transform="translate(80.173 -303.226)" fill="#242424"/>
        </g>
      </g>
      <path id="パス_6488" data-name="パス 6488" d="M-76.572,366.61c-1.788-1.921-3.8-19.42-3.162-26.593.254-2.878,3.761-10.89,3.843-11.145.146-.444,7.255-2.227,13.208-1.538a54.14,54.14,0,0,1,8.844,1.926s1.116,21.1-.155,36.506C-54.468,371.607-72.587,370.914-76.572,366.61Z" transform="translate(81.157 -263.975)" fill="#022540"/>
      <path id="パス_6489" data-name="パス 6489" d="M-54.385,361.217l-23.138-1.159s-2.309-31.405-2.025-33.49c.082-.642,8.306-7.927,8.306-7.927a168.788,168.788,0,0,1,9.525,16.478,41.353,41.353,0,0,1,1.758,4.161,37.993,37.993,0,0,0,.383-4.209,45.309,45.309,0,0,0-2.649-16.9l5.333,1.06a2.825,2.825,0,0,1,2,1.577c.19.4,2.546,8.676,2.766,10.559.375,3.227-1.249,9.383-1.654,12.558C-54.229,347.418-54.385,361.217-54.385,361.217Z" transform="translate(82.09 -293.752)" fill="#1170b8"/>
      <path id="パス_6490" data-name="パス 6490" d="M-72.518,324.89c2.464-1.318.676-6.328.181-6.505a1.814,1.814,0,0,0-1.84.28A14,14,0,0,0-76.184,323S-73.431,325.381-72.518,324.89Z" transform="translate(93.297 -293.483)" fill="#fff"/>
      <g id="グループ_6307" data-name="グループ 6307" transform="translate(0.156)">
        <path id="パス_6491" data-name="パス 6491" d="M-77.429,318.338l.026,1.469.043,2.8a5.415,5.415,0,0,0,.827.969l.009.013a4.08,4.08,0,0,0,.4.332,4.29,4.29,0,0,0,1.435.732,7.907,7.907,0,0,0,2.624.366,2.422,2.422,0,0,0,.78-.129,2.02,2.02,0,0,0,1.3-.969,3.765,3.765,0,0,0,.37-.978l-.172-3.541-.09-1.723Z" transform="translate(89.023 -295.382)" fill="#e9ae93"/>
        <path id="パス_6492" data-name="パス 6492" d="M-76.061,316.791c1.671-3.279,3.1-4.9,5.467-3.192a9.628,9.628,0,0,1,1.917.788,17.549,17.549,0,0,1,3.976,6.888,18.247,18.247,0,0,0,4.278,9.581.36.36,0,0,1-.065.556c-6.656,4.648-12.82.922-15.453-6.027C-76.949,322.736-77.4,319.4-76.061,316.791Z" transform="translate(90.791 -311.167)" fill="#260905"/>
        <path id="パス_6493" data-name="パス 6493" d="M-75.442,330.577c4.394,4.291,5.566,7.862,9.951,4.984s7.875-10.119,6.832-16.172c-1.116-6.436-10.451-8.525-15.694-5.557C-81.96,318.152-79.694,326.419-75.442,330.577Z" transform="translate(82.65 -312.507)" fill="#260905"/>
        <path id="パス_6494" data-name="パス 6494" d="M-78,323.446c.289,1.818,1.542,7.168,2.878,8.138,1.878,1.383,6.251,3.571,8.715,1.908,3.3-2.227,3.821-8.185,3.821-14.018s-4.442-6.932-8.233-4.45S-78.9,317.686-78,323.446Z" transform="translate(86.727 -308.301)" fill="#e9c2b0"/>
        <path id="パス_6495" data-name="パス 6495" d="M-77.879,318.47c.526,1.525,1.262,2.434,2.232,2.3s1.473-1.155,1.262-2.757-1.6-2.779-2.576-2.654S-78.478,316.743-77.879,318.47Z" transform="translate(86.711 -303.084)" fill="#e9c2b0"/>
        <path id="パス_6496" data-name="パス 6496" d="M-76.423,314.333c1.865-2.753,5.786-1.133,8.039.194,4.019,2.374,4.73,6.509,5.592,10.77.047.25-.172.582-.457.465-4.907-1.96-11.472-5.639-13.85-10.593C-77.517,315.048-76.755,314.8-76.423,314.333Z" transform="translate(89.709 -311.436)" fill="#260905"/>
        <path id="パス_6497" data-name="パス 6497" d="M-79,323.662c1.172-3.421,3.395-8.547,6.9-10.425,3.869-2.081,8.418,2.3,7.336,5.187-2.081,5.549-3.231,11.657.375,15.612a.432.432,0,0,1-.3.737c-4.256.4-8.909,1.318-12.855-.814C-81.356,331.9-80.111,326.889-79,323.662Z" transform="translate(80.12 -311.882)" fill="#260905"/>
      </g>
      <path id="パス_6498" data-name="パス 6498" d="M-78.085,321.467s.228.336.616.827c1.137,1.456,3.614,4.343,5.23,4.088.982-.164,1.9-1.939,2.344-2.99a7.907,7.907,0,0,1-2.624-.366,4.289,4.289,0,0,1-1.435-.732,4.073,4.073,0,0,1-.4-.332l-.009-.013a5.415,5.415,0,0,1-.827-.969l-.043-2.8A7.482,7.482,0,0,0-78.085,321.467Z" transform="translate(87.008 -293.752)" fill="#fff"/>
      <g id="グループ_6308" data-name="グループ 6308" transform="translate(0 31.346)">
        <path id="パス_6499" data-name="パス 6499" d="M-80.155,347.635a3.921,3.921,0,0,0,3.8,4.028h0a3.92,3.92,0,0,0,4.011-3.834l.616-24.013a3.918,3.918,0,0,0-3.813-4.032h0a3.924,3.924,0,0,0-4.011,3.83Z" transform="translate(80.156 -319.783)" fill="#fff"/>
        <path id="パス_6500" data-name="パス 6500" d="M-74.347,332.19c-.483-1.6-.465-3.912.207-4.536a20.693,20.693,0,0,1,3.253.521c1.93.47,4.037,1.271,4.8,2.52,1.624,2.68.59,3.49-.668,4.011C-68.647,335.494-72.076,331.462-74.347,332.19Z" transform="translate(98.27 -293.745)" fill="#e9c2b0"/>
        <path id="パス_6501" data-name="パス 6501" d="M-79.857,327.929A3.837,3.837,0,0,1-74.89,325.7l20.1,9.434c-1.323.935-1.762,3.166-1.577,4.377l-21.281-6.583A3.874,3.874,0,0,1-79.857,327.929Z" transform="translate(80.289 -301.064)" fill="#fff"/>
      </g>
      <g id="グループ_6315" data-name="グループ 6315" transform="translate(49.7 28.362)">
        <path id="パス_6502" data-name="パス 6502" d="M-68.619,324.384v.043a3.7,3.7,0,0,0,.164.991.592.592,0,0,0,.022.069c.026.1.069.207.108.315a3.928,3.928,0,0,0,.7,1.137,2.027,2.027,0,0,0,.31.3c.7-.082.892.065,1.577-.056.3-.06.6-.116.892-.181.956-.2,1.762-.4,2.18-.53a5.9,5.9,0,0,0,2.568-1.538,2.669,2.669,0,0,0,.474-2.417,2.111,2.111,0,0,0-.452-.754,1.9,1.9,0,0,0-1.491-.616,3.12,3.12,0,0,0-1.107.375c-.87.422-1.969.974-3.106,1.521-.314.155-.625.306-.926.461C-67.564,323.9-67.887,324.048-68.619,324.384Z" transform="translate(68.621 -312.309)" fill="#e9c2b0"/>
        <g id="グループ_6314" data-name="グループ 6314" transform="translate(4.778)">
          <g id="グループ_6313" data-name="グループ 6313">
            <g id="グループ_6311" data-name="グループ 6311" transform="translate(0 0.061)">
              <path id="パス_6503" data-name="パス 6503" d="M-56.95,319.1l-10.52,13.8a.319.319,0,0,0-.009.3.967.967,0,0,0,.672.517.329.329,0,0,0,.3-.086l10.223-14.014a.216.216,0,0,1-.2.06.626.626,0,0,1-.47-.362A.185.185,0,0,1-56.95,319.1Z" transform="translate(67.51 -319.104)" fill="#9cb5cc"/>
              <g id="グループ_6310" data-name="グループ 6310" clip-path="url(#clip-path)">
                <g id="グループ_6309" data-name="グループ 6309" transform="translate(-0.007 -0.002)">
                  <path id="パス_6504" data-name="パス 6504" d="M-56.981,319.1-67.5,332.9v0l10.52-13.8v0Z" transform="translate(67.549 -319.104)" fill="#aa2a41"/>
                  <path id="パス_6505" data-name="パス 6505" d="M-56.945,319.1l-10.52,13.8a.262.262,0,0,0-.047.138L-56.979,319.2a.133.133,0,0,1,.034-.1Z" transform="translate(67.512 -319.099)" fill="#d43451"/>
                  <path id="パス_6506" data-name="パス 6506" d="M-56.979,319.128l-10.533,13.837a.433.433,0,0,0,.039.155.8.8,0,0,0,.207.28l10.451-13.966a.631.631,0,0,1-.138-.2.278.278,0,0,1-.026-.108Z" transform="translate(67.512 -319.023)" fill="#ff3f61"/>
                  <path id="パス_6507" data-name="パス 6507" d="M-57,319.2l-10.451,13.966a.664.664,0,0,0,.2.142l10.4-14.014A.907.907,0,0,1-57,319.2Z" transform="translate(67.701 -318.788)" fill="#d43451"/>
                  <path id="パス_6508" data-name="パス 6508" d="M-57.014,319.221l-10.4,14.014a.8.8,0,0,0,.267.095.329.329,0,0,0,.3-.086l10.223-14.014a.216.216,0,0,1-.2.06.476.476,0,0,1-.19-.069Z" transform="translate(67.853 -318.715)" fill="#aa2a41"/>
                </g>
              </g>
            </g>
            <g id="グループ_6312" data-name="グループ 6312" transform="translate(10.527)">
              <path id="パス_6510" data-name="パス 6510" d="M-64.84,319.094c-.177-.03-.276.09-.2.267a.626.626,0,0,0,.47.362c.185.026.284-.095.211-.271A.67.67,0,0,0-64.84,319.094Z" transform="translate(65.067 -319.09)" fill="#9f273c"/>
            </g>
          </g>
        </g>
        <path id="パス_6511" data-name="パス 6511" d="M-68.553,324.45a2.9,2.9,0,0,0-.065.732v.043a3.7,3.7,0,0,0,.164.991.592.592,0,0,0,.022.069c.952-.349,1.551-.538,2.107-.741.125-.043.237-.086.362-.121.345-.095.7-.168,1.03-.267a3.432,3.432,0,0,0,.823-.336v-.009l.065-.026-.022.013a5.418,5.418,0,0,0,2.3-2.154,4.289,4.289,0,0,0,1.689-.086c.078-.022.168-.043.241-.069a1.641,1.641,0,0,0,.775-.453.789.789,0,0,0,.181-.844c-1.025-.082-2.051-.168-3.076-.25a5.972,5.972,0,0,0-1.753.039,6.216,6.216,0,0,0-2.869,2.15,1.117,1.117,0,0,1-.1.1,5.009,5.009,0,0,1-.694.539A5.908,5.908,0,0,1-68.553,324.45Z" transform="translate(68.619 -313.107)" fill="#e9c2b0"/>
        <path id="パス_6512" data-name="パス 6512" d="M-66.358,322.825a.991.991,0,0,0-.306.5c-.03.19.125.418.31.37a.907.907,0,0,0-.53.319c-.116.185,0,.487.207.474a.6.6,0,0,0-.676.4.473.473,0,0,0,.439.586.351.351,0,0,0-.306.435.57.57,0,0,0,.418.4,1.7,1.7,0,0,0,.607.039,4.374,4.374,0,0,0,2.244-.556.631.631,0,0,0,.224-.241.231.231,0,0,0-.108-.28,1.683,1.683,0,0,0,.754-.517.558.558,0,0,0-.164-.8,1.124,1.124,0,0,0,.551-.629c.065-.288-.159-.633-.439-.586a1.059,1.059,0,0,0,.233-1.185c-.271-.6-.47-.353-.819-.069C-64.506,322.1-65.639,322.127-66.358,322.825Z" transform="translate(72.753 -312.15)" fill="#e9c2b0"/>
      </g>
    </g>
    <g id="グループ_6328" data-name="グループ 6328" transform="translate(-47.269 336.588)">
      <g id="グループ_6318" data-name="グループ 6318" transform="translate(26.027 92.784)">
        <path id="パス_6513" data-name="パス 6513" d="M-56.323,340.927H-66.481l.042-6.37h10.158Z" transform="translate(66.481 -334.558)" fill="#081929"/>
        <g id="グループ_6317" data-name="グループ 6317" transform="translate(0.005 3.431)">
          <path id="パス_6514" data-name="パス 6514" d="M-57.745,336.25c1.943,1.167,1.887,3.033-.146,4.157a7.9,7.9,0,0,1-7.173-.069c-1.943-1.172-1.878-3.028.146-4.157A7.9,7.9,0,0,1-57.745,336.25Z" transform="translate(66.48 -335.354)" fill="#081929"/>
        </g>
      </g>
      <g id="グループ_6325" data-name="グループ 6325" transform="translate(16.4 68.196)">
        <g id="グループ_6324" data-name="グループ 6324">
          <g id="グループ_6319" data-name="グループ 6319" transform="translate(0.967 15.664)">
            <path id="パス_6515" data-name="パス 6515" d="M-44.72,334.932c5.277,3.175,5.1,8.237-.4,11.3s-14.246,2.981-19.515-.194c-5.29-3.179-5.1-8.245.4-11.308S-50,331.753-44.72,334.932Z" transform="translate(68.491 -332.486)" fill="#134663"/>
          </g>
          <g id="グループ_6320" data-name="グループ 6320" transform="translate(0.035 11.926)">
            <path id="パス_6516" data-name="パス 6516" d="M-64.221,347.561a11.17,11.17,0,0,1-2.434-1.926,9.1,9.1,0,0,1-.75-.9,7.277,7.277,0,0,1-.728-1.258,6.168,6.168,0,0,1-.426-1.249,6.045,6.045,0,0,1-.146-1.241,6.878,6.878,0,0,1,.056-.952,6.1,6.1,0,0,1,.323-1.245,6.943,6.943,0,0,1,1.211-2.124,9.618,9.618,0,0,1,1.926-1.822,16.455,16.455,0,0,1,6.165-2.675,23.207,23.207,0,0,1,4.265-.539c.465-.017,1.219-.03,2.124.017.857.052,1.219.1,2.081.211a19.51,19.51,0,0,1,2.008.383,19.867,19.867,0,0,1,1.921.569,17.154,17.154,0,0,1,1.792.758,12.518,12.518,0,0,1,1.107.6.785.785,0,0,0-.284-.112,2.346,2.346,0,0,0-1.551.37c-4.459-2.684-11.847-2.761-16.487-.172s-4.8,6.871-.345,9.551,11.838,2.757,16.487.168,4.795-6.867.345-9.546a2.346,2.346,0,0,1,1.551-.37.785.785,0,0,1,.284.112c.327.2.763.478,1.068.711a11.41,11.41,0,0,1,1.176,1.012,9.358,9.358,0,0,1,.806.922,7.315,7.315,0,0,1,.788,1.271,6.5,6.5,0,0,1,.625,2.245,6.227,6.227,0,0,1,0,1.064,6.511,6.511,0,0,1-.254,1.249,6.8,6.8,0,0,1-.53,1.241,7.246,7.246,0,0,1-.659,1.012,9.84,9.84,0,0,1-1.9,1.861,14.173,14.173,0,0,1-2.994,1.719,17.241,17.241,0,0,1-3.334,1.069C-54.235,350.766-60.241,349.977-64.221,347.561Z" transform="translate(68.707 -331.618)" fill="#02567d"/>
          </g>
          <g id="グループ_6321" data-name="グループ 6321" transform="translate(0.023 7.953)">
            <path id="パス_6517" data-name="パス 6517" d="M-64.229,346.639a11.233,11.233,0,0,1-2.425-1.93,8.189,8.189,0,0,1-.75-.9,6.862,6.862,0,0,1-.728-1.245,6.4,6.4,0,0,1-.427-1.254,6.023,6.023,0,0,1-.146-1.249,5.977,5.977,0,0,1,.056-.943,6.528,6.528,0,0,1,.314-1.245,7.113,7.113,0,0,1,.595-1.245,8.026,8.026,0,0,1,.732-1.012,10.382,10.382,0,0,1,2.115-1.887,14.846,14.846,0,0,1,2.524-1.4c.375-.155.879-.358,1.271-.491a19.22,19.22,0,0,1,2.072-.582,22.857,22.857,0,0,1,4.265-.539c.172-.009,1.073-.039,2.124.013.862.052,1.219.1,2.081.207a20.312,20.312,0,0,1,2,.4,16.673,16.673,0,0,1,1.921.564,15.938,15.938,0,0,1,1.8.75c.34.159.784.414,1.107.6a1.264,1.264,0,0,0-.289-.108,2.35,2.35,0,0,0-1.551.366c-4.45-2.679-11.838-2.761-16.487-.164s-4.795,6.867-.34,9.546,11.843,2.761,16.482.172,4.8-6.871.345-9.555a2.35,2.35,0,0,1,1.551-.366,1.264,1.264,0,0,1,.289.108c.327.207.767.482,1.073.719a12.423,12.423,0,0,1,1.18,1.017,8.163,8.163,0,0,1,1.59,2.188,6.706,6.706,0,0,1,.625,2.24,5.96,5.96,0,0,1-.009,1.069,6.185,6.185,0,0,1-.246,1.249,7.947,7.947,0,0,1-.526,1.241,7.947,7.947,0,0,1-.663,1,9.982,9.982,0,0,1-1.9,1.865,14.175,14.175,0,0,1-2.985,1.715,18.576,18.576,0,0,1-3.343,1.077C-54.235,349.836-60.245,349.052-64.229,346.639Z" transform="translate(68.71 -330.696)" fill="#02567d"/>
          </g>
          <g id="グループ_6322" data-name="グループ 6322" transform="translate(0.009 3.977)">
            <path id="パス_6518" data-name="パス 6518" d="M-64.227,345.711a11.027,11.027,0,0,1-2.434-1.921,9.156,9.156,0,0,1-.745-.9,7.483,7.483,0,0,1-.728-1.258,6.27,6.27,0,0,1-.431-1.249,6.6,6.6,0,0,1-.146-1.241,7.106,7.106,0,0,1,.056-.944,6.153,6.153,0,0,1,.314-1.241,6.761,6.761,0,0,1,.6-1.254,7.742,7.742,0,0,1,.728-1.012,10.508,10.508,0,0,1,2.107-1.887,14.028,14.028,0,0,1,2.542-1.4,18.874,18.874,0,0,1,3.343-1.081,24,24,0,0,1,4.256-.543c.474-.008,1.223-.017,2.132.026.853.047,1.211.1,2.072.207a19.56,19.56,0,0,1,2.008.388,16.5,16.5,0,0,1,1.921.569,16.676,16.676,0,0,1,1.8.754c.34.159.775.413,1.107.6a.96.96,0,0,0-.289-.112,2.336,2.336,0,0,0-1.551.371c-4.459-2.684-11.838-2.761-16.487-.168s-4.8,6.863-.34,9.546,11.834,2.761,16.482.168,4.808-6.871.345-9.546a2.336,2.336,0,0,1,1.551-.371.96.96,0,0,1,.289.112c.319.2.758.478,1.064.711a10.14,10.14,0,0,1,1.2,1.03,8,8,0,0,1,1.581,2.189,6.639,6.639,0,0,1,.625,2.236,5.983,5.983,0,0,1-.009,1.068,5.84,5.84,0,0,1-.254,1.241,7.237,7.237,0,0,1-1.18,2.257,10.631,10.631,0,0,1-1.9,1.861,14.51,14.51,0,0,1-2.994,1.715,18.146,18.146,0,0,1-3.334,1.073C-54.241,348.916-60.242,348.132-64.227,345.711Z" transform="translate(68.713 -329.773)" fill="#02567d"/>
          </g>
          <g id="グループ_6323" data-name="グループ 6323">
            <path id="パス_6519" data-name="パス 6519" d="M-64.229,344.793a11.2,11.2,0,0,1-2.434-1.921,8.8,8.8,0,0,1-.745-.9,7.059,7.059,0,0,1-.728-1.254,6,6,0,0,1-.426-1.249,5.84,5.84,0,0,1-.151-1.249,5.356,5.356,0,0,1,.06-.935,5.99,5.99,0,0,1,.31-1.249,6.638,6.638,0,0,1,.6-1.245,8.3,8.3,0,0,1,.719-1.017,11.11,11.11,0,0,1,2.107-1.891,15.935,15.935,0,0,1,2.55-1.4,18.214,18.214,0,0,1,3.339-1.068,22.856,22.856,0,0,1,4.261-.547c.47-.013,1.215-.026,2.124.017.862.052,1.223.095,2.085.211,0,0,.918.121,2.007.383a17.781,17.781,0,0,1,1.908.569,16.81,16.81,0,0,1,1.805.758c.336.155.775.413,1.107.594a1.043,1.043,0,0,0-.3-.1,2.384,2.384,0,0,0-1.542.366c-4.459-2.684-11.847-2.762-16.491-.164s-4.795,6.867-.336,9.546,11.838,2.762,16.482.168,4.8-6.867.345-9.551a2.384,2.384,0,0,1,1.542-.366,1.043,1.043,0,0,1,.3.1,13.239,13.239,0,0,1,1.87,1.387,8.644,8.644,0,0,1,1.456,1.654,6.8,6.8,0,0,1,1.094,2.749,6.217,6.217,0,0,1-.349,3.072,7.956,7.956,0,0,1-1.852,2.792,13.33,13.33,0,0,1-1.1.948c-.31.241-.763.53-1.1.75a16.606,16.606,0,0,1-2.3,1.142,20.977,20.977,0,0,1-6.126,1.379,23.1,23.1,0,0,1-3.179.043,23.1,23.1,0,0,1-3.149-.388c-.556-.112-1.3-.3-1.861-.448-.293-.082-.694-.215-.991-.327A16.317,16.317,0,0,1-64.229,344.793Z" transform="translate(68.715 -328.85)" fill="#02567d"/>
          </g>
          <path id="パス_6520" data-name="パス 6520" d="M-45.129,338.421c-5.51,3.072-14.246,2.981-19.515-.2-2.283-1.365-3.545-3.089-3.8-4.846-.31,2.2.935,4.472,3.8,6.195,5.269,3.175,14.005,3.265,19.515.2,3.123-1.745,4.536-4.136,4.192-6.458C-41.2,335.182-42.609,337.017-45.129,338.421Z" transform="translate(69.462 -314.09)" fill="#134663"/>
          <path id="パス_6521" data-name="パス 6521" d="M-45.129,337.483c-5.51,3.063-14.246,2.981-19.515-.194-2.283-1.378-3.545-3.1-3.8-4.855-.31,2.206.935,4.48,3.8,6.195,5.269,3.175,14.005,3.261,19.515.2,3.123-1.745,4.536-4.131,4.192-6.458C-41.2,334.247-42.609,336.074-45.129,337.483Z" transform="translate(69.462 -317.21)" fill="#134663"/>
          <path id="パス_6522" data-name="パス 6522" d="M-45.129,336.571c-5.51,3.072-14.246,2.981-19.515-.194-2.283-1.37-3.545-3.093-3.8-4.859-.31,2.214.935,4.48,3.8,6.2,5.269,3.175,14.005,3.261,19.515.2,3.123-1.745,4.536-4.136,4.192-6.453C-41.2,333.336-42.609,335.167-45.129,336.571Z" transform="translate(69.462 -320.197)" fill="#134663"/>
          <path id="パス_6523" data-name="パス 6523" d="M-45.129,335.673c-2.7,1.508-6.173,1.934-9.633,1.926-3.606,0-7.194-.5-9.882-2.12-2.283-1.361-3.545-3.089-3.8-4.851-.31,2.21.935,4.476,3.8,6.2,5.269,3.179,14.005,3.257,19.515.194,3.123-1.745,4.536-4.131,4.192-6.453C-41.2,332.442-42.609,334.273-45.129,335.673Z" transform="translate(69.462 -323.167)" fill="#134663"/>
        </g>
      </g>
      <g id="グループ_6327" data-name="グループ 6327">
        <g id="グループ_6326" data-name="グループ 6326" transform="translate(16.827 66.141)">
          <path id="パス_6524" data-name="パス 6524" d="M-43.96,330.91c5.475,3.313,5.286,8.573-.422,11.769s-14.772,3.1-20.247-.207-5.286-8.573.418-11.761S-49.44,327.605-43.96,330.91Z" transform="translate(68.616 -328.373)" fill="#ffbf00"/>
        </g>
        <path id="パス_6525" data-name="パス 6525" d="M-10.465,341.47c-1.379-16.736-13.962-28.45-30.789-28.45h-.233c-16.84,0-29.415,11.714-30.8,28.45-.668,8.207-.81,20.006,12.67,35.829,2.817,3.3,3.653,6.738,3.959,10.636.172,2.128,10.451,3.515,14.29,3.8,3.834-.28,14.109-1.667,14.281-3.8.31-3.9,1.146-7.332,3.968-10.636C-9.646,361.476-9.784,349.676-10.465,341.47Z" transform="translate(72.522 -313.02)" fill="#ffb923"/>
      </g>
      <path id="パス_6526" data-name="パス 6526" d="M-54.742,333.051c-1.986,5.889-7.151,9.469-11.537,7.987s-6.32-7.44-4.342-13.337,7.156-9.456,11.532-7.983S-52.76,327.166-54.742,333.051Z" transform="translate(76.253 -291.962)" fill="#f8f9fc"/>
      <path id="パス_6527" data-name="パス 6527" d="M-36.582,318.1l-.112.082v-.172a6.889,6.889,0,0,0-2.4,2.611,4.427,4.427,0,0,1-1.6,1.8,1.359,1.359,0,0,1-1.59.048,2.227,2.227,0,0,0-2.43.164,6.921,6.921,0,0,0-2.391,2.615,4.438,4.438,0,0,1-1.59,1.8,1.4,1.4,0,0,1-1.6.043,2.2,2.2,0,0,0-2.412.159,6.833,6.833,0,0,0-2.4,2.615,4.449,4.449,0,0,1-1.6,1.8,1.379,1.379,0,0,1-1.59.039,2.218,2.218,0,0,0-2.408.164,6.851,6.851,0,0,0-2.4,2.615,4.487,4.487,0,0,1-1.59,1.8,1.386,1.386,0,0,1-1.6.043,2.2,2.2,0,0,0-2.408.164v.155a1.533,1.533,0,0,0-.19,1.555L-57.23,369.92c0,.026.017.043.026.069v9.982h1.3V369.48h-.009a1.852,1.852,0,0,0-.112-.582L-67.5,337.666a1.331,1.331,0,0,1,.4.164,2.21,2.21,0,0,0,2.417-.172,6.813,6.813,0,0,0,2.4-2.611,4.435,4.435,0,0,1,1.594-1.8,1.371,1.371,0,0,1,1.59-.035,2.224,2.224,0,0,0,2.408-.159,6.937,6.937,0,0,0,2.4-2.619,4.395,4.395,0,0,1,1.59-1.8,1.4,1.4,0,0,1,1.6-.048,2.2,2.2,0,0,0,2.4-.159,6.781,6.781,0,0,0,2.4-2.615,4.563,4.563,0,0,1,1.59-1.8,1.415,1.415,0,0,1,1.607-.043,2.194,2.194,0,0,0,2.4-.164,6.893,6.893,0,0,0,2.421-2.619,8.32,8.32,0,0,1,.573-.875L-49.01,364.875a2.581,2.581,0,0,0-.1.93V379.97h1.3V364.535l.017-.039,11.429-45.048C-36.146,318.595-36.246,317.991-36.582,318.1Z" transform="translate(84.151 -296.503)" fill="#134663"/>
    </g>
    <g id="グループ_6336" data-name="グループ 6336" transform="translate(-28.016 382.889)">
      <path id="パス_6528" data-name="パス 6528" d="M-42.163,359.331a6.054,6.054,0,0,1-6.005,6.1h0a6.05,6.05,0,0,1-6.109-6.01l-.3-23.651a6.07,6.07,0,0,1,6.01-6.113h0a6.071,6.071,0,0,1,6.109,6.018Z" transform="translate(112.642 -304.27)" fill="#174361"/>
      <g id="グループ_6330" data-name="グループ 6330" transform="translate(38.62 34.966)">
        <g id="グループ_6329" data-name="グループ 6329" transform="translate(0 13.693)">
          <path id="パス_6529" data-name="パス 6529" d="M-51.021,337.671a1.2,1.2,0,0,0,1.008-1.349h0a1.2,1.2,0,0,0-1.353-1.017l-6.436.926a1.19,1.19,0,0,0-1.017,1.344h0a1.2,1.2,0,0,0,1.348,1.008Z" transform="translate(59.944 -334.298)" fill="#e9c2b0"/>
          <path id="パス_6530" data-name="パス 6530" d="M-50.307,335.063l-4.622,3.033-2.891,3.3c-.246.34-1.6,1.93-1.193,3.028.271.75,2.292,4.747,3.511,3.8.819-.62,6.8-6.639,6.8-6.639.444-.358,2.1-.9,2.283-1.305l1.155-2.7Z" transform="translate(59.088 -335.063)" fill="#e9c2b0"/>
        </g>
        <path id="パス_6531" data-name="パス 6531" d="M-56.268,342.57a5.342,5.342,0,0,0,.689,7.513h0a5.325,5.325,0,0,0,7.5-.724l5.665-8.75a5.328,5.328,0,0,0-.681-7.509h0a5.328,5.328,0,0,0-7.5.724Z" transform="translate(64.348 -331.885)" fill="#fdfffe"/>
      </g>
      <g id="グループ_6331" data-name="グループ 6331" transform="translate(46.194)">
        <path id="パス_6532" data-name="パス 6532" d="M-46.525,332.875c-.138,2.611-4.8,3.046-8.345,3.2l-.026.009a6.78,6.78,0,0,1-1.055-1.353l.2-5.26,9.322-.28-.026,3.6C-46.469,332.815-46.525,332.849-46.525,332.875Z" transform="translate(61.893 -305.825)" fill="#e9c2b0"/>
        <path id="パス_6533" data-name="パス 6533" d="M-41.631,343.482c-4.605,4.312-6.3,4.144-10.468.84s-5.73-7.741-4.325-14.1c1.491-6.777,9.719-8.043,14.72-4.6C-32.145,332.221-35.906,338.131-41.631,343.482Z" transform="translate(58.662 -323.768)" fill="#2b0d04"/>
        <path id="パス_6534" data-name="パス 6534" d="M-57.3,334.156a3.762,3.762,0,0,1,.922-1.28,1.468,1.468,0,0,0,.737-1.219c-.009-.4-.19-.866-.246-1.3a4.744,4.744,0,0,1,.482-2.163,14.378,14.378,0,0,0,.233-1.783c.082-.582.258-1.142.659-1.314l.09-.039c1.435,2.167,3.33,4.011,3.873,6.768a18.364,18.364,0,0,1,.246,2.636c.047.853.263,1.827.254,2.641,0,.513-.306.986.138,1.611.2.271,1.034.426,1.043.315a8.106,8.106,0,0,1,.3-1.995c.207-.582.577-1.021,1.107-1.038a2.077,2.077,0,0,1,1.663,1.241,3.877,3.877,0,0,1,.233,2.649c-.241,1.107-.853,2.119-1.995,1.633a3.353,3.353,0,0,1,.754,1.74,1.077,1.077,0,0,0,.142.439.922.922,0,0,0,.246.224,1.4,1.4,0,0,1,.211.142,1.425,1.425,0,0,1-.875.388c-.426,0-.37.237-1.84.564a3.428,3.428,0,0,1-1.443-.267q-1.57-.459-3.162-.922a2.238,2.238,0,0,1-.827-.375,4.876,4.876,0,0,1-1.288-2.089,1.505,1.505,0,0,1-.108-.414c-.065-.534.487-.655.362-1.219a8.509,8.509,0,0,0-.37-.814,1.259,1.259,0,0,1,.09-1,1.142,1.142,0,0,1-.444-.883,4.031,4.031,0,0,0-.073-.956,4.088,4.088,0,0,0-.982-1.366A.6.6,0,0,1-57.3,334.156Z" transform="translate(57.33 -319.5)" fill="#e9c2b0"/>
        <path id="パス_6535" data-name="パス 6535" d="M-34.9,333.07c-.228-2.71-6.656-3.33-6.656-3.33-.444-.4-2.7-10.878-13.928-3.084-2.331,1.62-1.646,5.411-1.646,5.411s.556.4,3.86-.159c1.745-.289.681,3.257,1.245,3.774.526.465,2.412,4.011,3.976,7.151.211.422.418.84.607,1.236.844,1.71-1.443,4.347-1.3,4.816.3.961,6.091.246,7.509-2.236C-40.9,346.395-33.306,339.342-34.9,333.07Z" transform="translate(57.672 -323.726)" fill="#2b0d04"/>
        <path id="パス_6536" data-name="パス 6536" d="M-56.382,330.965a1.468,1.468,0,0,0,.737-1.219c-.009-.4-.19-.866-.246-1.3a4.744,4.744,0,0,1,.482-2.163c.026-.086.034-.177.052-.263,1.465.31,2.615-1.163,3.571.22a28.492,28.492,0,0,1,1.232,3.675,18.365,18.365,0,0,1,.246,2.636c.047.853.263,1.827.254,2.641,0,.513-.306.987.138,1.611.2.271,1.034.426,1.043.315a8.107,8.107,0,0,1,.3-1.995c.207-.582.577-1.021,1.107-1.038a2.077,2.077,0,0,1,1.663,1.241,3.877,3.877,0,0,1,.233,2.649c-.241,1.107-.853,2.119-1.995,1.633a2.146,2.146,0,0,1,.345.487l-8.362-.474a1.129,1.129,0,0,0-.065-.168,1.505,1.505,0,0,1-.108-.414c-.065-.534.487-.655.362-1.219a8.505,8.505,0,0,0-.37-.814,1.259,1.259,0,0,1,.09-1,1.142,1.142,0,0,1-.444-.883,4.031,4.031,0,0,0-.073-.956,4.087,4.087,0,0,0-.982-1.366.6.6,0,0,1-.134-.56A3.762,3.762,0,0,1-56.382,330.965Z" transform="translate(57.33 -317.588)" fill="#e9c2b0"/>
      </g>
      <g id="グループ_6332" data-name="グループ 6332" transform="translate(46.704 141.852)">
        <path id="パス_6537" data-name="パス 6537" d="M-40.8,360.1s1.129,4.786-.478,6.372c-.452.435-2.279.478-4.368-.1-1.37-.375-2.813-1.3-4.17-1.568-3.993-.788-4.937-2.589-6.488-4.9-3.3-4.928,3.089-3.154,7.229-1.426A21.14,21.14,0,0,0-40.8,360.1Z" transform="translate(57.212 -356.696)" fill="#231f20"/>
      </g>
      <path id="パス_6538" data-name="パス 6538" d="M-48.8,416.756a16.281,16.281,0,0,0,6.755-2.378l3.937-73.808-14.716,1.779-3.847,72.279C-54.259,416.067-51.652,417.122-48.8,416.756Z" transform="translate(105.705 -268.187)" fill="#0d212f"/>
      <g id="グループ_6333" data-name="グループ 6333" transform="translate(33.632 142.748)">
        <path id="パス_6539" data-name="パス 6539" d="M-43.836,360.317s1.142,4.786-.474,6.367c-.444.444-2.27.478-4.368-.095-1.37-.379-2.8-1.292-4.174-1.564-3.993-.793-4.937-2.593-6.479-4.911-3.3-4.928,3.084-3.153,7.224-1.421A21.151,21.151,0,0,0-43.836,360.317Z" transform="translate(60.246 -356.904)" fill="#231f20"/>
      </g>
      <path id="パス_6540" data-name="パス 6540" d="M-53.206,410.391a15.591,15.591,0,0,1-6.514-3.145l2.029-55.8-1.008-4.209,16.724-4.377-3.184,65.882C-47.705,410.094-50.41,411.025-53.206,410.391Z" transform="translate(95.619 -260.599)" fill="#113045"/>
      <path id="パス_6541" data-name="パス 6541" d="M-56.264,334.234c.655-.909,5.949-2.451,10.313-2.2s6.746-3.524,6.509.844-2.008,24.241-6.38,24C-50.173,356.627-58.832,337.771-56.264,334.234Z" transform="translate(105.505 -300.658)" fill="#dcdcdc"/>
      <path id="パス_6542" data-name="パス 6542" d="M-56.264,334.234c.655-.909,5.949-2.451,10.313-2.2s6.746-3.524,6.509.844-2.008,24.241-6.38,24C-50.173,356.627-58.832,337.771-56.264,334.234Z" transform="translate(105.505 -300.658)" fill="#dcdcdc"/>
      <path id="パス_6543" data-name="パス 6543" d="M-56.271,334.293c.009-.556,2.1-3.994,2.559-3.584,1.74,1.542,7.074,1.534,8.4.93a3.22,3.22,0,0,0,1.547-1.982s6.535,6.471-3.645,7.871a10.029,10.029,0,0,1-6.1-.986C-55.047,335.693-57.8,335.663-56.271,334.293Z" transform="translate(105.541 -304.284)" fill="#def3ee"/>
      <path id="パス_6544" data-name="パス 6544" d="M-59.934,402.167l2.9-49.891c1.9-14.763,9.077-18.58,11.873-19.61,0,0,2.68,3.4,8.879,2.408,6.32-1.017,3.739-5.239,3.739-5.239,8.138.569,8,11.485,8.03,15.263.06,7.112-2.171,41.882-2.99,53.742Z" transform="translate(94.911 -303.695)" fill="#1a4b6c"/>
      <g id="グループ_6335" data-name="グループ 6335" transform="translate(0 30.619)">
        <g id="グループ_6334" data-name="グループ 6334" transform="translate(0 7.339)">
          <path id="パス_6545" data-name="パス 6545" d="M-62.849,340.027a1.184,1.184,0,0,0,1.615.461h0a1.177,1.177,0,0,0,.448-1.62l-3.171-5.678a1.186,1.186,0,0,0-1.615-.461h0a1.194,1.194,0,0,0-.461,1.62Z" transform="translate(74.24 -332.579)" fill="#e9c2b0"/>
          <path id="パス_6546" data-name="パス 6546" d="M-53.573,337.927l-4.493-3.222-4.114-1.512c-.418-.108-2.369-.8-3.265-.013-.586.521-3.6,3.83-2.275,4.644.866.543,8.637,3.95,8.637,3.95.5.289,1.6,1.637,2.042,1.65l2.942.1Z" transform="translate(68.053 -331.815)" fill="#e9c2b0"/>
        </g>
        <path id="パス_6547" data-name="パス 6547" d="M-60.331,346.266a5.523,5.523,0,0,0-.6,7.785h0a5.511,5.511,0,0,0,7.78.551l16.5-14.048a5.521,5.521,0,0,0,.6-7.78h0a5.519,5.519,0,0,0-7.78-.551Z" transform="translate(87.222 -330.875)" fill="#174361"/>
        <path id="パス_6548" data-name="パス 6548" d="M-58.692,333.81a5.334,5.334,0,0,0-6.763,3.339h0a5.333,5.333,0,0,0,3.377,6.746l14.944,2.994a5.333,5.333,0,0,0,6.764-3.343h0a5.317,5.317,0,0,0-3.377-6.733Z" transform="translate(75.73 -322.094)" fill="#174361"/>
      </g>
    </g>
  </g>
</svg>
